<svg width="252.22197265625px" height="111.2px" xmlns="http://www.w3.org/2000/svg" viewBox="123.889013671875 19.4 252.22197265625 111.2" style="background: rgba(0, 0, 0, 0);" preserveAspectRatio="xMidYMid"><defs><filter id="editing-extrude-glow"><feFlood flood-color="#363636" result="flood-1"></feFlood><feMorphology operator="erode" radius="1" in="SourceAlpha" result="erode"></feMorphology><feComposite operator="in" in="flood-1" in2="erode" result="comp1"></feComposite><feConvolveMatrix order="0,0" divisor="1" in="comp1" result="convolve" kernelMatrix=""></feConvolveMatrix><feOffset dx="0" dy="0" in="convolve" result="extrude"></feOffset><feComposite operator="in" in="flood-1" in2="extrude" result="comp-extrude"></feComposite><feFlood flood-color="#ffffff" result="flood-2"></feFlood><feComposite operator="in" in="flood-2" in2="SourceAlpha" result="comp2"></feComposite><feMorphology operator="dilate" radius="1" in="comp2" result="dilate"></feMorphology><feOffset dx="0" dy="0" in="dilate" result="offset"></feOffset><feGaussianBlur in="offset" stdDeviation="5.8" result="blur"></feGaussianBlur><feComponentTransfer in="blur" result="shadow"><feFuncA type="linear" slope="0.8" intercept="-0.2"></feFuncA></feComponentTransfer><feMerge><feMergeNode in="shadow"></feMergeNode><feMergeNode in="comp-extrude"></feMergeNode><feMergeNode in="SourceGraphic"></feMergeNode></feMerge></filter></defs><g filter="url(#editing-extrude-glow)"><g transform="translate(165.57088685035706, 98.63000106811523)"><path d="M0.37 0.31L0.37 0.31Q-0.14 0.31-0.24-0.41L-0.24-0.41L-0.24-0.41Q1.16-8.16 3.57-18.67L3.57-18.67L3.57-18.67Q5.95-28.90 6.73-32.37L6.73-32.37L6.73-32.37Q6.87-32.71 7.16-32.95L7.16-32.95L7.16-32.95Q7.45-33.18 7.72-33.18L7.72-33.18L7.72-33.18Q8.26-33.18 8.26-32.57L8.26-32.57L8.26-32.57Q7.45-27.95 6.43-23.77L6.43-23.77L6.43-23.77Q5.75-20.88 4.45-15.10L4.45-15.10L11.59-23.09L11.59-23.09Q15.84-27.78 19.92-32.61L19.92-32.61L19.92-32.61Q20.26-32.88 20.64-32.88L20.64-32.88L20.64-32.88Q21.18-32.88 21.18-32.30L21.18-32.30L21.18-32.30Q21.18-31.93 20.91-31.62L20.91-31.62L20.91-31.62Q18.63-28.90 13.19-22.75L13.19-22.75L13.19-22.75Q7.62-16.46 6.29-14.89L6.29-14.89L6.29-14.89Q6.60-11.83 7.58-9.15L7.58-9.15L7.58-9.15Q8.57-6.46 10.00-4.57L10.00-4.57L10.00-4.57Q11.42-2.69 12.99-1.87L12.99-1.87L12.99-1.87Q14.18-1.19 15.57-1.19L15.57-1.19L15.57-1.19Q17.54-1.19 18.56-2.69L18.56-2.69L18.56-2.69Q18.90-2.96 19.18-2.96L19.18-2.96L19.18-2.96Q19.86-2.96 19.86-2.35L19.86-2.35L19.86-2.35Q19.86-1.97 19.38-1.41L19.38-1.41L19.38-1.41Q18.90-0.85 18.21-0.39L18.21-0.39L18.21-0.39Q17.51 0.07 16.97 0.14L16.97 0.14L16.97 0.14Q16.05 0.31 15.33 0.31L15.33 0.31L15.33 0.31Q13.91 0.31 12.61-0.27L12.61-0.27L12.61-0.27Q11.32-0.85 10.10-2.14L10.10-2.14L10.10-2.14Q8.19-4.05 6.87-7.14L6.87-7.14L6.87-7.14Q5.54-10.23 4.93-13.63L4.93-13.63L4.93-13.63Q4.76-13.46 4.30-12.99L4.30-12.99L4.30-12.99Q3.84-12.51 3.67-12.24L3.67-12.24L3.67-12.24Q1.90-4.35 1.33-0.65L1.33-0.65L1.33-0.65Q1.26-0.24 0.97 0.03L0.97 0.03L0.97 0.03Q0.68 0.31 0.37 0.31L0.37 0.31ZM32.91 0.07L32.91 0.07Q32.13 0.07 31.47-0.77L31.47-0.77L31.47-0.77Q30.80-1.60 30.80-2.55L30.80-2.55L30.80-2.55Q30.80-4.66 31.93-9.69L31.93-9.69L31.93-9.69Q31.08-7.85 29.73-5.93L29.73-5.93L29.73-5.93Q28.39-4.01 27.10-2.55L27.10-2.55L27.10-2.55Q25.81-1.09 25.19-0.65L25.19-0.65L25.19-0.65Q24.34 0 23.32 0L23.32 0L23.32 0Q21.39 0 21.39-2.45L21.39-2.45L21.39-2.45Q21.39-4.83 23.19-8.38L23.19-8.38L23.19-8.38Q24.99-11.93 27.47-14.55L27.47-14.55L27.47-14.55Q29.95-17.14 31.48-17.14L31.48-17.14L31.48-17.14Q33.05-17.14 33.25-15.78L33.25-15.78L33.25-15.78Q33.35-15.37 33.35-14.89L33.35-14.89L33.35-14.89Q33.52-14.99 33.73-14.99L33.73-14.99L33.73-14.99Q34.51-14.99 34.51-14.25L34.51-14.25L34.51-14.11L34.10-12.61L34.10-12.61Q33.63-10.91 33.12-7.58L33.12-7.58L33.12-7.58Q32.61-4.25 32.61-2.04L32.61-2.04L32.95-1.84L32.95-1.84Q33.76-1.33 33.76-0.82L33.76-0.82L33.76-0.82Q33.76-0.48 33.52-0.20L33.52-0.20L33.52-0.20Q33.29 0.07 32.91 0.07L32.91 0.07ZM23.60-1.77L23.60-1.77Q23.97-1.77 24.21-2.01L24.21-2.01L24.21-2.01Q27.68-4.96 30.36-10.20L30.36-10.20L30.36-10.20Q31.52-12.38 31.81-13.06L31.81-13.06L31.81-13.06Q32.10-13.74 32.10-14.38L32.10-14.38L32.10-14.38Q32.10-14.72 31.93-14.99L31.93-14.99L31.93-14.99Q31.76-15.27 31.48-15.27L31.48-15.27L31.48-15.27Q31.14-15.27 30.60-14.96L30.60-14.96L30.60-14.96Q29.24-14.25 27.39-11.93L27.39-11.93L27.39-11.93Q25.53-9.62 24.34-7.04L24.34-7.04L24.34-7.04Q23.09-4.42 23.09-2.38L23.09-2.38L23.09-2.38Q23.09-1.77 23.60-1.77L23.60-1.77ZM28.19 14.08L28.19 14.08Q26.32 14.08 25.13 13.43L25.13 13.43L25.13 13.43Q24.75 13.23 24.75 12.92L24.75 12.92L24.75 12.92Q24.75 12.61 25.01 12.31L25.01 12.31L25.01 12.31Q25.26 12.00 25.60 11.93L25.60 11.93L25.60 11.93Q26.76 12.38 28.49 12.38L28.49 12.38L28.49 12.38Q32.20 12.38 34.48 8.30L34.48 8.30L34.48 8.30Q36.75 4.22 37.84-1.07L37.84-1.07L37.84-1.07Q38.93-6.36 39.88-13.77L39.88-13.77L39.88-13.77Q39.98-14.65 40.07-15.33L40.07-15.33L40.07-15.33Q40.15-16.01 40.22-16.49L40.22-16.49L40.22-16.49Q40.32-16.86 40.60-17.07L40.60-17.07L40.60-17.07Q40.87-17.27 41.17-17.27L41.17-17.27L41.17-17.27Q41.75-17.27 41.75-16.66L41.75-16.66L41.04-11.56L41.04-11.56Q39.13 1.73 37.54 6.66L37.54 6.66L37.54 6.66Q36.24 10.68 33.88 12.38L33.88 12.38L33.88 12.38Q31.52 14.08 28.19 14.08L28.19 14.08ZM41.58-20.20L41.58-20.20Q41.04-20.20 40.77-20.33L40.77-20.33L40.63-20.33L40.63-20.33Q39.64-20.33 39.64-21.49L39.64-21.49L39.64-21.49Q39.64-22.07 40.14-22.54L40.14-22.54L40.14-22.54Q40.63-23.02 41.21-23.02L41.21-23.02L41.21-23.02Q41.79-23.02 42.30-22.61L42.30-22.61L42.30-22.61Q42.87-22.03 42.87-21.49L42.87-21.49L42.87-21.49Q42.87-20.98 42.48-20.59L42.48-20.59L42.48-20.59Q42.09-20.20 41.58-20.20L41.58-20.20ZM55.01 0.07L55.01 0.07Q54.23 0.07 53.57-0.77L53.57-0.77L53.57-0.77Q52.90-1.60 52.90-2.55L52.90-2.55L52.90-2.55Q52.90-4.66 54.03-9.69L54.03-9.69L54.03-9.69Q53.18-7.85 51.83-5.93L51.83-5.93L51.83-5.93Q50.49-4.01 49.20-2.55L49.20-2.55L49.20-2.55Q47.91-1.09 47.29-0.65L47.29-0.65L47.29-0.65Q46.44 0 45.42 0L45.42 0L45.42 0Q43.49 0 43.49-2.45L43.49-2.45L43.49-2.45Q43.49-4.83 45.29-8.38L45.29-8.38L45.29-8.38Q47.09-11.93 49.57-14.55L49.57-14.55L49.57-14.55Q52.05-17.14 53.58-17.14L53.58-17.14L53.58-17.14Q55.15-17.14 55.35-15.78L55.35-15.78L55.35-15.78Q55.45-15.37 55.45-14.89L55.45-14.89L55.45-14.89Q55.62-14.99 55.83-14.99L55.83-14.99L55.83-14.99Q56.61-14.99 56.61-14.25L56.61-14.25L56.61-14.11L56.20-12.61L56.20-12.61Q55.73-10.91 55.22-7.58L55.22-7.58L55.22-7.58Q54.71-4.25 54.71-2.04L54.71-2.04L55.05-1.84L55.05-1.84Q55.86-1.33 55.86-0.82L55.86-0.82L55.86-0.82Q55.86-0.48 55.62-0.20L55.62-0.20L55.62-0.20Q55.39 0.07 55.01 0.07L55.01 0.07ZM45.70-1.77L45.70-1.77Q46.07-1.77 46.31-2.01L46.31-2.01L46.31-2.01Q49.78-4.96 52.46-10.20L52.46-10.20L52.46-10.20Q53.62-12.38 53.91-13.06L53.91-13.06L53.91-13.06Q54.20-13.74 54.20-14.38L54.20-14.38L54.20-14.38Q54.20-14.72 54.03-14.99L54.03-14.99L54.03-14.99Q53.86-15.27 53.58-15.27L53.58-15.27L53.58-15.27Q53.24-15.27 52.70-14.96L52.70-14.96L52.70-14.96Q51.34-14.25 49.49-11.93L49.49-11.93L49.49-11.93Q47.63-9.62 46.44-7.04L46.44-7.04L46.44-7.04Q45.19-4.42 45.19-2.38L45.19-2.38L45.19-2.38Q45.19-1.77 45.70-1.77L45.70-1.77ZM62.22 0.27L62.22 0.27Q61.00 0.27 60.37-0.37L60.37-0.37L60.37-0.37Q59.74-1.02 59.74-2.07L59.74-2.07L59.74-2.07Q59.74-2.99 59.84-3.76L59.84-3.76L59.84-3.76Q59.94-4.52 60.21-6.15L60.21-6.15L60.21-6.15Q60.76-9.32 61.61-13.36L61.61-13.36L62.49-17.65L62.49-17.65Q65.42-31.62 65.62-32.30L65.62-32.30L65.62-32.30Q65.79-32.84 66.37-32.84L66.37-32.84L66.37-32.84Q67.08-32.84 67.08-32.06L67.08-32.06L66.95-31.18L66.95-31.18Q66.78-30.09 66.57-29.16L66.57-29.16L66.57-29.16Q66.37-28.22 65.82-25.57L65.82-25.57L65.82-25.57Q64.91-21.28 63.50-14.55L63.50-14.55L63.50-14.55Q62.08-7.82 61.71-5.58L61.71-5.58L61.71-5.58Q61.27-3.13 61.27-2.52L61.27-2.52L61.27-2.52Q61.27-2.01 61.57-1.60L61.57-1.60L61.57-1.60Q61.88-1.19 62.32-1.19L62.32-1.19L62.32-1.19Q62.80-1.19 63.22-1.38L63.22-1.38L63.22-1.38Q63.65-1.56 63.78-1.63L63.78-1.63L64.36-1.94L64.36-1.94Q64.63-2.07 64.70-2.07L64.70-2.07L64.70-2.07Q65.45-2.07 65.45-1.33L65.45-1.33L65.45-1.33Q65.45-0.58 64.50-0.15L64.50-0.15L64.50-0.15Q63.55 0.27 62.22 0.27L62.22 0.27ZM76.30 0.31L76.30 0.31Q75.79 0.31 75.68-0.41L75.68-0.41L75.68-0.41Q77.08-8.16 79.49-18.67L79.49-18.67L79.49-18.67Q81.87-28.90 82.65-32.37L82.65-32.37L82.65-32.37Q82.79-32.71 83.08-32.95L83.08-32.95L83.08-32.95Q83.37-33.18 83.64-33.18L83.64-33.18L83.64-33.18Q84.18-33.18 84.18-32.57L84.18-32.57L84.18-32.57Q83.37-27.95 82.35-23.77L82.35-23.77L82.35-23.77Q81.67-20.88 80.38-15.10L80.38-15.10L87.52-23.09L87.52-23.09Q91.77-27.78 95.85-32.61L95.85-32.61L95.85-32.61Q96.19-32.88 96.56-32.88L96.56-32.88L96.56-32.88Q97.10-32.88 97.10-32.30L97.10-32.30L97.10-32.30Q97.10-31.93 96.83-31.62L96.83-31.62L96.83-31.62Q94.55-28.90 89.11-22.75L89.11-22.75L89.11-22.75Q83.54-16.46 82.21-14.89L82.21-14.89L82.21-14.89Q82.52-11.83 83.50-9.15L83.50-9.15L83.50-9.15Q84.49-6.46 85.92-4.57L85.92-4.57L85.92-4.57Q87.35-2.69 88.91-1.87L88.91-1.87L88.91-1.87Q90.10-1.19 91.49-1.19L91.49-1.19L91.49-1.19Q93.47-1.19 94.49-2.69L94.49-2.69L94.49-2.69Q94.83-2.96 95.10-2.96L95.10-2.96L95.10-2.96Q95.78-2.96 95.78-2.35L95.78-2.35L95.78-2.35Q95.78-1.97 95.30-1.41L95.30-1.41L95.30-1.41Q94.83-0.85 94.13-0.39L94.13-0.39L94.13-0.39Q93.43 0.07 92.89 0.14L92.89 0.14L92.89 0.14Q91.97 0.31 91.26 0.31L91.26 0.31L91.26 0.31Q89.83 0.31 88.54-0.27L88.54-0.27L88.54-0.27Q87.24-0.85 86.02-2.14L86.02-2.14L86.02-2.14Q84.12-4.05 82.79-7.14L82.79-7.14L82.79-7.14Q81.46-10.23 80.85-13.63L80.85-13.63L80.85-13.63Q80.68-13.46 80.22-12.99L80.22-12.99L80.22-12.99Q79.76-12.51 79.59-12.24L79.59-12.24L79.59-12.24Q77.83-4.35 77.25-0.65L77.25-0.65L77.25-0.65Q77.18-0.24 76.89 0.03L76.89 0.03L76.89 0.03Q76.60 0.31 76.30 0.31L76.30 0.31ZM106.69 0.82L106.69 0.82Q105.67 0.82 105.67-1.90L105.67-1.90L105.67-1.90Q105.67-3.33 105.91-4.76L105.91-4.76L105.91-4.76Q106.15-6.19 106.66-8.47L106.66-8.47L106.93-9.72L106.93-9.72Q106.35-8.60 105.57-6.87L105.57-6.87L105.57-6.87Q104.18-4.01 102.77-1.87L102.77-1.87L102.77-1.87Q101.35 0.27 99.96 0.27L99.96 0.27L99.96 0.27Q98.12 0.27 98.12-3.37L98.12-3.37L98.12-3.37Q98.12-7.89 99.59-13.94L99.59-13.94L100.13-16.01L100.13-16.01Q100.44-17.14 101.18-17.14L101.18-17.14L101.18-17.14Q101.59-17.14 101.76-16.56L101.76-16.56L101.76-16.56Q101.69-15.95 101.49-15.10L101.49-15.10L101.49-15.10Q101.29-14.25 101.22-13.87L101.22-13.87L101.22-13.87Q100.57-11.39 100.16-8.93L100.16-8.93L100.16-8.93Q99.76-6.46 99.69-2.92L99.69-2.92L99.69-2.92Q99.69-1.56 100.13-1.56L100.13-1.56L100.13-1.56Q100.78-1.56 101.86-3.08L101.86-3.08L101.86-3.08Q102.95-4.59 104.55-7.68L104.55-7.68L104.55-7.68Q106.11-11.05 107.54-13.75L107.54-13.75L107.54-13.75Q108.97-16.46 109.79-16.46L109.79-16.46L109.79-16.46Q110.36-16.46 110.36-15.81L110.36-15.81L110.36-15.81Q110.36-15.33 109.51-13.12L109.51-13.12L109.51-13.12Q108.87-11.46 108.66-10.71L108.66-10.71L108.66-10.71Q107.47-6.63 107.17-1.80L107.17-1.80L107.17-1.80Q107.17-1.36 107.25-1.14L107.25-1.14L107.25-1.14Q107.34-0.92 107.56-0.68L107.56-0.68L107.56-0.68Q107.78-0.44 107.78-0.10L107.78-0.10L107.78-0.10Q107.78 0.24 107.41 0.53L107.41 0.53L107.41 0.53Q107.03 0.82 106.69 0.82L106.69 0.82ZM113.39 0.48L113.39 0.48Q113.05 0.48 112.81 0.34L112.81 0.34L112.81 0.34Q112.57 0.20 112.57 0L112.57 0L112.57 0Q112.88-0.95 113.05-1.97L113.05-1.97L113.05-1.97Q113.29-3.23 113.59-4.08L113.59-4.08L113.59-4.08Q114.92-9.32 115.91-16.01L115.91-16.01L116.01-16.59L116.01-16.59Q116.01-16.83 116.48-17.37L116.48-17.37L116.48-17.37Q116.79-17.51 116.99-17.51L116.99-17.51L116.99-17.51Q117.44-17.51 117.61-16.93L117.61-16.93L117.61-16.66L117.61-16.66Q117.57-14.42 116.86-11.39L116.86-11.39L116.01-7.82L116.82-9.59L116.82-9.59Q118.59-13.74 120.22-15.57L120.22-15.57L120.22-15.57Q121.75-17.31 123.62-17.31L123.62-17.31L123.62-17.31Q124.61-17.31 125.27-16.49L125.27-16.49L125.27-16.49Q125.94-15.67 125.94-14.55L125.94-14.55L125.94-14.28L125.94-14.28Q125.90-14.18 125.90-14.01L125.90-14.01L125.90-14.01Q127.74-16.25 129.74-17.07L129.74-17.07L129.74-17.07Q130.39-17.34 131.00-17.34L131.00-17.34L131.00-17.34Q131.65-17.34 132.19-16.73L132.19-16.73L132.19-16.73Q132.74-16.12 132.74-15.16L132.74-15.16L132.74-15.16Q132.74-13.29 131.99-10.71L131.99-10.71L131.99-10.71Q131.51-9.15 131.24-8.36L131.24-8.36L131.24-8.36Q129.61-3.54 129.44-1.84L129.44-1.84L129.44-1.84Q129.40-1.53 129.34-1.07L129.34-1.07L129.34-1.07Q129.27-0.61 129.23-0.51L129.23-0.51L129.23-0.51Q128.96 0.31 128.32 0.31L128.32 0.31L128.32 0.31Q127.53 0.31 127.53-1.36L127.53-1.36L127.53-1.36Q127.53-2.38 127.91-3.60L127.91-3.60L127.91-3.60Q128.21-4.52 128.55-5.68L128.55-5.68L128.55-5.68Q128.66-6.09 129.20-7.65L129.20-7.65L129.20-7.65Q129.98-9.86 130.42-11.39L130.42-11.39L130.42-11.39Q130.87-12.92 131.04-14.76L131.04-14.76L131.04-14.76Q131.04-15.40 130.88-15.56L130.88-15.56L130.88-15.56Q130.73-15.71 130.25-15.71L130.25-15.71L130.25-15.71Q129.74-15.71 128.84-15.10L128.84-15.10L128.84-15.10Q127.94-14.48 127.06-13.46L127.06-13.46L127.06-13.46Q125.02-11.15 123.93-7.48L123.93-7.48L123.93-7.48Q123.59-6.22 123.35-5.68L123.35-5.68L123.35-5.68Q122.23-2.28 121.96-1.26L121.96-1.26L121.96-1.26Q121.69-0.17 121.52 0.03L121.52 0.03L121.52 0.03Q121.31 0.31 120.90 0.31L120.90 0.31L120.90 0.31Q120.12 0.31 120.05-0.54L120.05-0.54L120.05-0.54Q120.39-2.92 121.01-4.76L121.01-4.76L121.01-4.76Q121.62-6.60 122.54-8.87L122.54-8.87L122.54-8.87Q123.11-10.37 123.54-11.88L123.54-11.88L123.54-11.88Q123.96-13.40 123.96-14.45L123.96-14.45L123.96-14.45Q123.96-15.61 123.25-15.61L123.25-15.61L123.25-15.61Q122.06-15.61 120.53-13.38L120.53-13.38L120.53-13.38Q119.00-11.15 117.71-8.45L117.71-8.45L117.71-8.45Q116.42-5.75 116.04-4.62L116.04-4.62L116.04-4.62Q115.80-3.98 115.67-3.59L115.67-3.59L115.67-3.59Q115.53-3.20 115.46-2.96L115.46-2.96L115.46-2.96Q114.38 0.48 113.39 0.48L113.39 0.48ZM146.68 0.07L146.68 0.07Q145.89 0.07 145.23-0.77L145.23-0.77L145.23-0.77Q144.57-1.60 144.57-2.55L144.57-2.55L144.57-2.55Q144.57-4.66 145.69-9.69L145.69-9.69L145.69-9.69Q144.84-7.85 143.50-5.93L143.50-5.93L143.50-5.93Q142.15-4.01 140.86-2.55L140.86-2.55L140.86-2.55Q139.57-1.09 138.96-0.65L138.96-0.65L138.96-0.65Q138.11 0 137.09 0L137.09 0L137.09 0Q135.15 0 135.15-2.45L135.15-2.45L135.15-2.45Q135.15-4.83 136.95-8.38L136.95-8.38L136.95-8.38Q138.75-11.93 141.24-14.55L141.24-14.55L141.24-14.55Q143.72-17.14 145.25-17.14L145.25-17.14L145.25-17.14Q146.81-17.14 147.02-15.78L147.02-15.78L147.02-15.78Q147.12-15.37 147.12-14.89L147.12-14.89L147.12-14.89Q147.29-14.99 147.49-14.99L147.49-14.99L147.49-14.99Q148.27-14.99 148.27-14.25L148.27-14.25L148.27-14.11L147.87-12.61L147.87-12.61Q147.39-10.91 146.88-7.58L146.88-7.58L146.88-7.58Q146.37-4.25 146.37-2.04L146.37-2.04L146.71-1.84L146.71-1.84Q147.53-1.33 147.53-0.82L147.53-0.82L147.53-0.82Q147.53-0.48 147.29-0.20L147.29-0.20L147.29-0.20Q147.05 0.07 146.68 0.07L146.68 0.07ZM137.36-1.77L137.36-1.77Q137.73-1.77 137.97-2.01L137.97-2.01L137.97-2.01Q141.44-4.96 144.13-10.20L144.13-10.20L144.13-10.20Q145.28-12.38 145.57-13.06L145.57-13.06L145.57-13.06Q145.86-13.74 145.86-14.38L145.86-14.38L145.86-14.38Q145.86-14.72 145.69-14.99L145.69-14.99L145.69-14.99Q145.52-15.27 145.25-15.27L145.25-15.27L145.25-15.27Q144.91-15.27 144.36-14.96L144.36-14.96L144.36-14.96Q143.00-14.25 141.15-11.93L141.15-11.93L141.15-11.93Q139.30-9.62 138.11-7.04L138.11-7.04L138.11-7.04Q136.85-4.42 136.85-2.38L136.85-2.38L136.85-2.38Q136.85-1.77 137.36-1.77L137.36-1.77ZM151.71 0.54L151.71 0.54Q151.23 0.54 151.23-0.07L151.23-0.07L152.01-4.11L153.44-11.29L153.44-11.29Q154.39-16.05 154.39-16.05L154.39-16.05L154.39-16.05Q154.53-16.80 154.77-17.14L154.77-17.14L154.77-17.14Q155.01-17.48 155.38-17.48L155.38-17.48L155.38-17.48Q155.72-17.48 155.91-17.31L155.91-17.31L155.91-17.31Q156.09-17.14 156.09-16.69L156.09-16.69L156.09-16.69Q156.09-15.91 155.62-14.31L155.62-14.31L155.62-14.31Q155.38-13.53 155.28-12.99L155.28-12.99L155.28-12.99Q155.14-12.51 154.97-11.92L154.97-11.92L154.97-11.92Q154.80-11.32 154.60-10.54L154.60-10.54L154.60-10.54Q155.52-12.61 156.33-13.86L156.33-13.86L156.33-13.86Q157.15-15.10 158.37-16.22L158.37-16.22L158.37-16.22Q159.53-17.20 160.68-17.20L160.68-17.20L160.68-17.20Q161.53-17.20 162.11-16.85L162.11-16.85L162.11-16.85Q162.69-16.49 162.69-16.01L162.69-16.01L162.69-16.01Q162.69-15.64 162.42-15.42L162.42-15.42L162.42-15.42Q162.15-15.20 161.74-15.20L161.74-15.20L161.74-15.20Q161.43-15.20 161.16-15.33L161.16-15.33L161.16-15.33Q160.96-15.50 160.62-15.50L160.62-15.50L160.62-15.50Q160.17-15.50 159.32-14.89L159.32-14.89L159.32-14.89Q157.73-13.74 156.62-11.85L156.62-11.85L156.62-11.85Q155.52-9.96 154.89-8.04L154.89-8.04L154.89-8.04Q154.26-6.12 153.54-3.40L153.54-3.40L153.24-2.14L153.24-2.14Q152.73 0.54 151.71 0.54L151.71 0.54ZM164.15 0.34L164.15 0.34Q163.00 0.34 163.00-1.53L163.00-1.53L163.00-1.53Q163.00-2.01 163.17-2.38L163.17-2.38L163.17-2.38Q163.34-2.96 163.47-3.71L163.47-3.71L163.98-5.98L164.66-8.98L164.66-8.98Q165.00-10.64 165.48-12.72L165.48-12.72L165.48-12.72Q165.55-12.92 165.61-13.40L165.61-13.40L165.61-13.40Q165.95-14.86 165.95-15.10L165.95-15.10L165.95-15.44L165.95-15.44Q165.95-15.71 165.72-16.56L165.72-16.56L165.72-16.56Q165.72-16.97 166.00-17.31L166.00-17.31L166.00-17.31Q166.29-17.65 166.70-17.65L166.70-17.65L166.70-17.65Q167.08-17.65 167.35-17.14L167.35-17.14L167.35-17.14Q167.62-16.63 167.62-16.01L167.62-16.01L167.62-16.01Q167.62-15.33 166.06-8.67L166.06-8.67L166.06-8.67Q164.49-2.01 164.49-1.60L164.49-1.60L164.49-1.60Q164.49-1.22 164.83-1.22L164.83-1.22L164.83-1.22Q165.00-1.22 165.44-1.67L165.44-1.67L165.44-1.67Q165.85-2.07 166.12-2.07L166.12-2.07L166.12-2.07Q166.67-2.07 166.67-1.39L166.67-1.39L166.67-1.39Q166.67-0.99 166.19-0.58L166.19-0.58L166.19-0.58Q165.72-0.17 165.10 0.09L165.10 0.09L165.10 0.09Q164.49 0.34 164.15 0.34L164.15 0.34ZM167.59-20.20L167.59-20.20Q167.04-20.20 166.77-20.33L166.77-20.33L166.63-20.33L166.63-20.33Q165.65-20.33 165.65-21.49L165.65-21.49L165.65-21.49Q165.65-22.07 166.14-22.54L166.14-22.54L166.14-22.54Q166.63-23.02 167.21-23.02L167.21-23.02L167.21-23.02Q167.79-23.02 168.30-22.61L168.30-22.61L168.30-22.61Q168.88-22.03 168.88-21.49L168.88-21.49L168.88-21.49Q168.88-20.98 168.49-20.59L168.49-20.59L168.49-20.59Q168.10-20.20 167.59-20.20L167.59-20.20Z" fill="#eb6c6c"></path></g></g><style>text {
  font-size: 64px;
  font-family: Arial Black;
  dominant-baseline: central;
  text-anchor: middle;
}</style></svg>