<svg width="209.6px" height="86px" xmlns="http://www.w3.org/2000/svg" viewBox="145.2 32 209.6 86" style="background: rgba(0, 0, 0, 0);" preserveAspectRatio="xMidYMid"><defs><filter id="editing-extrude-glow"><feFlood flood-color="#363636" result="flood-1"></feFlood><feMorphology operator="erode" radius="1" in="SourceAlpha" result="erode"></feMorphology><feComposite operator="in" in="flood-1" in2="erode" result="comp1"></feComposite><feConvolveMatrix order="0,0" divisor="1" in="comp1" result="convolve" kernelMatrix=""></feConvolveMatrix><feOffset dx="0" dy="0" in="convolve" result="extrude"></feOffset><feComposite operator="in" in="flood-1" in2="extrude" result="comp-extrude"></feComposite><feFlood flood-color="#ffffff" result="flood-2"></feFlood><feComposite operator="in" in="flood-2" in2="SourceAlpha" result="comp2"></feComposite><feMorphology operator="dilate" radius="1" in="comp2" result="dilate"></feMorphology><feOffset dx="0" dy="0" in="dilate" result="offset"></feOffset><feGaussianBlur in="offset" stdDeviation="5.8" result="blur"></feGaussianBlur><feComponentTransfer in="blur" result="shadow"><feFuncA type="linear" slope="0.8" intercept="-0.2"></feFuncA></feComponentTransfer><feMerge><feMergeNode in="shadow"></feMergeNode><feMergeNode in="comp-extrude"></feMergeNode><feMergeNode in="SourceGraphic"></feMergeNode></feMerge></filter></defs><g filter="url(#editing-extrude-glow)"><g transform="translate(180.123880982399, 94.43999862670898)"><path d="M1.10-19.32L1.10-19.32L1.10-19.32Q1.10-19.59 1.10-20.27L1.10-20.27L1.10-20.27Q1.10-20.95 1.10-21.71L1.10-21.71L1.10-21.71Q1.10-22.48 1.11-23.16L1.11-23.16L1.11-23.16Q1.13-23.84 1.13-24.11L1.13-24.11L2.03-24.11L2.03-24.11Q2.03-24.11 2.06-23.42L2.06-23.42L2.06-23.42Q2.09-22.74 2.14-21.60L2.14-21.60L2.14-21.60Q2.19-20.45 2.26-18.91L2.26-18.91L2.26-18.91Q2.32-17.37 2.41-15.62L2.41-15.62L2.41-15.62Q2.49-13.88 2.57-12.04L2.57-12.04L2.57-12.04Q2.66-10.19 2.74-8.45L2.74-8.45L2.74-8.45Q2.82-6.71 2.89-5.15L2.89-5.15L2.89-5.15Q2.96-3.59 3.02-2.42L3.02-2.42L3.02-2.42Q3.02-2.39 3.02-2.21L3.02-2.21L3.02-2.21Q3.02-2.03 3.00-1.78L3.00-1.78L3.00-1.78Q2.99-1.53 2.97-1.33L2.97-1.33L2.97-1.33Q2.96-1.13 2.96-1.03L2.96-1.03L2.96-1.03Q2.96-0.73 2.94-0.55L2.94-0.55L2.94-0.55Q2.92-0.37 2.81-0.23L2.81-0.23L2.81-0.23Q2.69-0.10 2.41-0.02L2.41-0.02L2.41-0.02Q2.13 0.07 1.66 0.13L1.66 0.13L1.66 0.13Q1.63-0.30 1.56-1.61L1.56-1.61L1.56-1.61Q1.49-2.92 1.41-4.71L1.41-4.71L1.41-4.71Q1.33-6.51 1.26-8.60L1.26-8.60L1.26-8.60Q1.20-10.69 1.15-12.68L1.15-12.68L1.15-12.68Q1.10-14.68 1.06-16.44L1.06-16.44L1.06-16.44Q1.03-18.20 1.10-19.32ZM13.21-0.46L10.03-9.56L10.03-9.56Q9.06-11.19 8.04-11.80L8.04-11.80L8.04-11.80Q7.01-12.42 6.06-12.38L6.06-12.38L6.06-12.38Q5.11-12.35 4.32-11.82L4.32-11.82L4.32-11.82Q3.52-11.29 3.02-10.69L3.02-10.69L3.02-12.09L11.95-24.24L13.21-24.24L6.21-14.01L6.21-14.01Q6.77-13.88 7.57-13.46L7.57-13.46L7.57-13.46Q8.37-13.05 9.13-12.52L9.13-12.52L9.13-12.52Q9.89-11.99 10.51-11.37L10.51-11.37L10.51-11.37Q11.12-10.76 11.32-10.19L11.32-10.19L14.51-0.46L14.51-0.46Q14.31-0.46 14.13-0.40L14.13-0.40L14.13-0.40Q13.95-0.33 13.76-0.28L13.76-0.28L13.76-0.28Q13.58-0.23 13.43-0.27L13.43-0.27L13.43-0.27Q13.28-0.30 13.21-0.46L13.21-0.46ZM16.40-2.86L16.40-2.86L16.40-2.86Q16.40-4.75 17.45-5.61L17.45-5.61L17.45-5.61Q18.49-6.47 20.19-6.47L20.19-6.47L20.19-6.47Q20.85-6.47 21.43-6.44L21.43-6.44L21.43-6.44Q22.01-6.41 22.54-6.28L22.54-6.28L22.54-6.28Q23.08-6.14 23.59-5.88L23.59-5.88L23.59-5.88Q24.11-5.61 24.67-5.11L24.67-5.11L24.67-5.11Q24.67-5.21 24.69-5.53L24.69-5.53L24.69-5.53Q24.70-5.84 24.70-6.21L24.70-6.21L24.70-6.21Q24.70-6.57 24.70-6.89L24.70-6.89L24.70-6.89Q24.70-7.21 24.70-7.34L24.70-7.34L24.70-7.34Q24.67-7.94 24.67-8.88L24.67-8.88L24.67-8.88Q24.67-9.83 24.52-10.82L24.52-10.82L24.52-10.82Q24.37-11.82 23.92-12.72L23.92-12.72L23.92-12.72Q23.47-13.61 22.48-14.08L22.48-14.08L22.48-14.08Q21.78-14.08 21.18-13.85L21.18-13.85L21.18-13.85Q20.59-13.61 19.99-13.35L19.99-13.35L19.99-13.35Q19.39-13.08 18.79-12.87L18.79-12.87L18.79-12.87Q18.20-12.65 17.50-12.65L17.50-12.65L17.50-12.65Q17.50-13.48 18.01-14.03L18.01-14.03L18.01-14.03Q18.53-14.58 19.26-14.88L19.26-14.88L19.26-14.88Q19.99-15.17 20.79-15.27L20.79-15.27L20.79-15.27Q21.58-15.37 22.18-15.37L22.18-15.37L22.18-15.37Q22.78-15.27 23.29-15.14L23.29-15.14L23.29-15.14Q23.81-15.01 24.25-14.61L24.25-14.61L24.25-14.61Q24.70-14.21 25.08-13.40L25.08-13.40L25.08-13.40Q25.47-12.58 25.75-11.12L25.75-11.12L25.75-11.12Q26.03-9.66 26.25-7.42L26.25-7.42L26.25-7.42Q26.46-5.18 26.60-1.93L26.60-1.93L26.60-1.93Q26.66-1.49 26.31-1.18L26.31-1.18L26.31-1.18Q25.96-0.86 25.37-0.65L25.37-0.65L25.37-0.65Q24.77-0.43 24.02-0.28L24.02-0.28L24.02-0.28Q23.28-0.13 22.51-0.07L22.51-0.07L22.51-0.07Q21.75 0 21.05 0.03L21.05 0.03L21.05 0.03Q20.35 0.07 19.89 0.07L19.89 0.07L19.89 0.07Q19.29 0.07 18.68-0.13L18.68-0.13L18.68-0.13Q18.06-0.33 17.55-0.71L17.55-0.71L17.55-0.71Q17.03-1.10 16.72-1.64L16.72-1.64L16.72-1.64Q16.40-2.19 16.40-2.86ZM20.72-5.18L20.72-5.18L20.72-5.18Q19.06-4.71 18.39-4.07L18.39-4.07L18.39-4.07Q17.73-3.42 17.81-2.82L17.81-2.82L17.81-2.82Q17.90-2.22 18.59-1.74L18.59-1.74L18.59-1.74Q19.29-1.26 20.29-1.11L20.29-1.11L20.29-1.11Q21.28-0.96 22.45-1.28L22.45-1.28L22.45-1.28Q23.61-1.59 24.67-2.52L24.67-2.52L24.67-2.52Q24.27-3.49 23.87-4.00L23.87-4.00L23.87-4.00Q23.47-4.52 23.01-4.78L23.01-4.78L23.01-4.78Q22.54-5.05 21.98-5.11L21.98-5.11L21.98-5.11Q21.42-5.18 20.72-5.18ZM19.82 10.46L19.82 10.46L19.82 10.46Q19.82 10.13 19.87 9.89L19.87 9.89L19.87 9.89Q19.92 9.66 20.07 9.63L20.07 9.63L20.07 9.63Q20.22 9.60 20.49 9.78L20.49 9.78L20.49 9.78Q20.75 9.96 21.15 10.49L21.15 10.49L21.15 10.49Q21.15 10.92 21.76 11.19L21.76 11.19L21.76 11.19Q22.38 11.46 23.18 11.60L23.18 11.60L23.18 11.60Q23.97 11.75 24.79 11.79L24.79 11.79L24.79 11.79Q25.60 11.82 25.96 11.82L25.96 11.82L25.96 11.82Q27.59 11.82 28.74 11.24L28.74 11.24L28.74 11.24Q29.88 10.66 30.63 9.68L30.63 9.68L30.63 9.68Q31.38 8.70 31.73 7.39L31.73 7.39L31.73 7.39Q32.07 6.08 32.07 4.65L32.07 4.65L32.07 4.65Q32.07 2.59 31.79 0.68L31.79 0.68L31.79 0.68Q31.51-1.23 31.04-3.14L31.04-3.14L31.04-3.14Q30.58-5.05 29.98-7.02L29.98-7.02L29.98-7.02Q29.38-9.00 28.79-11.19L28.79-11.19L28.79-11.19Q28.55-12.19 28.65-12.68L28.65-12.68L28.65-12.68Q28.75-13.18 29.00-13.33L29.00-13.33L29.00-13.33Q29.25-13.48 29.57-13.38L29.57-13.38L29.57-13.38Q29.88-13.28 30.08-13.08L30.08-13.08L30.08-13.08Q30.65-10.99 31.21-8.78L31.21-8.78L31.21-8.78Q31.78-6.57 32.27-4.28L32.27-4.28L32.27-4.28Q32.77-1.99 33.07 0.33L33.07 0.33L33.07 0.33Q33.37 2.66 33.37 4.91L33.37 4.91L33.37 4.91Q33.37 6.47 32.97 7.95L32.97 7.95L32.97 7.95Q32.57 9.43 31.73 10.56L31.73 10.56L31.73 10.56Q30.88 11.69 29.62 12.38L29.62 12.38L29.62 12.38Q28.36 13.08 26.60 13.08L26.60 13.08L26.60 13.08Q25.80 13.08 24.64 13.05L24.64 13.05L24.64 13.05Q23.47 13.02 22.40 12.77L22.40 12.77L22.40 12.77Q21.32 12.52 20.57 12.00L20.57 12.00L20.57 12.00Q19.82 11.49 19.82 10.46ZM27.29-21.48L27.29-21.48L27.29-21.48Q27.72-21.48 28.22-21.37L28.22-21.37L28.22-21.37Q28.72-21.25 29.15-21.00L29.15-21.00L29.15-21.00Q29.58-20.75 29.87-20.37L29.87-20.37L29.87-20.37Q30.15-19.99 30.15-19.46L30.15-19.46L30.15-19.46Q30.15-18.16 28.79-18.16L28.79-18.16L28.79-18.16Q28.16-18.16 27.82-18.49L27.82-18.49L27.82-18.49Q27.49-18.83 27.38-19.32L27.38-19.32L27.38-19.32Q27.26-19.82 27.28-20.40L27.28-20.40L27.28-20.40Q27.29-20.98 27.29-21.48ZM28.79-19.62L28.79-19.62L28.79-19.62Q28.69-19.62 28.69-19.47L28.69-19.47L28.69-19.47Q28.69-19.32 28.79-19.32L28.79-19.32L28.79-19.32Q28.92-19.32 28.92-19.47L28.92-19.47L28.92-19.47Q28.92-19.62 28.79-19.62ZM34.90-2.86L34.90-2.86L34.90-2.86Q34.90-4.75 35.94-5.61L35.94-5.61L35.94-5.61Q36.99-6.47 38.68-6.47L38.68-6.47L38.68-6.47Q39.35-6.47 39.93-6.44L39.93-6.44L39.93-6.44Q40.51-6.41 41.04-6.28L41.04-6.28L41.04-6.28Q41.57-6.14 42.08-5.88L42.08-5.88L42.08-5.88Q42.60-5.61 43.16-5.11L43.16-5.11L43.16-5.11Q43.16-5.21 43.18-5.53L43.18-5.53L43.18-5.53Q43.20-5.84 43.20-6.21L43.20-6.21L43.20-6.21Q43.20-6.57 43.20-6.89L43.20-6.89L43.20-6.89Q43.20-7.21 43.20-7.34L43.20-7.34L43.20-7.34Q43.16-7.94 43.16-8.88L43.16-8.88L43.16-8.88Q43.16-9.83 43.01-10.82L43.01-10.82L43.01-10.82Q42.87-11.82 42.42-12.72L42.42-12.72L42.42-12.72Q41.97-13.61 40.97-14.08L40.97-14.08L40.97-14.08Q40.28-14.08 39.68-13.85L39.68-13.85L39.68-13.85Q39.08-13.61 38.48-13.35L38.48-13.35L38.48-13.35Q37.88-13.08 37.29-12.87L37.29-12.87L37.29-12.87Q36.69-12.65 35.99-12.65L35.99-12.65L35.99-12.65Q35.99-13.48 36.51-14.03L36.51-14.03L36.51-14.03Q37.02-14.58 37.75-14.88L37.75-14.88L37.75-14.88Q38.48-15.17 39.28-15.27L39.28-15.27L39.28-15.27Q40.08-15.37 40.67-15.37L40.67-15.37L40.67-15.37Q41.27-15.27 41.79-15.14L41.79-15.14L41.79-15.14Q42.30-15.01 42.75-14.61L42.75-14.61L42.75-14.61Q43.20-14.21 43.58-13.40L43.58-13.40L43.58-13.40Q43.96-12.58 44.24-11.12L44.24-11.12L44.24-11.12Q44.53-9.66 44.74-7.42L44.74-7.42L44.74-7.42Q44.96-5.18 45.09-1.93L45.09-1.93L45.09-1.93Q45.16-1.49 44.81-1.18L44.81-1.18L44.81-1.18Q44.46-0.86 43.86-0.65L43.86-0.65L43.86-0.65Q43.26-0.43 42.52-0.28L42.52-0.28L42.52-0.28Q41.77-0.13 41.01-0.07L41.01-0.07L41.01-0.07Q40.24 0 39.54 0.03L39.54 0.03L39.54 0.03Q38.85 0.07 38.38 0.07L38.38 0.07L38.38 0.07Q37.79 0.07 37.17-0.13L37.17-0.13L37.17-0.13Q36.56-0.33 36.04-0.71L36.04-0.71L36.04-0.71Q35.53-1.10 35.21-1.64L35.21-1.64L35.21-1.64Q34.90-2.19 34.90-2.86ZM39.21-5.18L39.21-5.18L39.21-5.18Q37.55-4.71 36.89-4.07L36.89-4.07L36.89-4.07Q36.22-3.42 36.31-2.82L36.31-2.82L36.31-2.82Q36.39-2.22 37.09-1.74L37.09-1.74L37.09-1.74Q37.79-1.26 38.78-1.11L38.78-1.11L38.78-1.11Q39.78-0.96 40.94-1.28L40.94-1.28L40.94-1.28Q42.10-1.59 43.16-2.52L43.16-2.52L43.16-2.52Q42.77-3.49 42.37-4.00L42.37-4.00L42.37-4.00Q41.97-4.52 41.50-4.78L41.50-4.78L41.50-4.78Q41.04-5.05 40.47-5.11L40.47-5.11L40.47-5.11Q39.91-5.18 39.21-5.18ZM47.21-25.80L47.21-25.80L47.21-25.80Q47.68-25.73 48.03-25.55L48.03-25.55L48.03-25.55Q48.38-25.37 48.58-24.90L48.58-24.90L48.58-24.90Q48.58-24.27 48.63-23.16L48.63-23.16L48.63-23.16Q48.68-22.05 48.73-20.59L48.73-20.59L48.73-20.59Q48.78-19.13 48.84-17.43L48.84-17.43L48.84-17.43Q48.91-15.74 48.97-14.01L48.97-14.01L48.97-14.01Q49.04-12.29 49.09-10.59L49.09-10.59L49.09-10.59Q49.14-8.90 49.19-7.44L49.19-7.44L49.19-7.44Q49.24-5.98 49.27-4.85L49.27-4.85L49.27-4.85Q49.31-3.72 49.34-3.12L49.34-3.12L49.34-3.12Q49.34-3.05 49.32-2.89L49.32-2.89L49.32-2.89Q49.31-2.72 49.29-2.49L49.29-2.49L49.29-2.49Q49.27-2.26 49.26-2.04L49.26-2.04L49.26-2.04Q49.24-1.83 49.24-1.73L49.24-1.73L49.24-1.73Q49.21-1.53 49.21-1.25L49.21-1.25L49.21-1.25Q49.21-0.96 49.14-0.70L49.14-0.70L49.14-0.70Q49.07-0.43 48.92-0.22L48.92-0.22L48.92-0.22Q48.78 0 48.44 0.03L48.44 0.03L47.88-0.66L47.88-0.66Q47.85-0.70 47.80-1.91L47.80-1.91L47.80-1.91Q47.75-3.12 47.66-5.06L47.66-5.06L47.66-5.06Q47.58-7.01 47.51-9.45L47.51-9.45L47.51-9.45Q47.45-11.89 47.36-14.38L47.36-14.38L47.36-14.38Q47.28-16.87 47.21-19.16L47.21-19.16L47.21-19.16Q47.15-21.45 47.12-23.11L47.12-23.11L47.12-23.11Q47.12-23.24 47.13-23.64L47.13-23.64L47.13-23.64Q47.15-24.04 47.17-24.45L47.17-24.45L47.17-24.45Q47.18-24.87 47.20-25.25L47.20-25.25L47.20-25.25Q47.21-25.63 47.21-25.80ZM64.41-19.32L64.41-19.32L64.41-19.32Q64.41-19.59 64.41-20.27L64.41-20.27L64.41-20.27Q64.41-20.95 64.41-21.71L64.41-21.71L64.41-21.71Q64.41-22.48 64.43-23.16L64.43-23.16L64.43-23.16Q64.45-23.84 64.45-24.11L64.45-24.11L65.34-24.11L65.34-24.11Q65.34-24.11 65.38-23.42L65.38-23.42L65.38-23.42Q65.41-22.74 65.46-21.60L65.46-21.60L65.46-21.60Q65.51-20.45 65.58-18.91L65.58-18.91L65.58-18.91Q65.64-17.37 65.73-15.62L65.73-15.62L65.73-15.62Q65.81-13.88 65.89-12.04L65.89-12.04L65.89-12.04Q65.97-10.19 66.06-8.45L66.06-8.45L66.06-8.45Q66.14-6.71 66.21-5.15L66.21-5.15L66.21-5.15Q66.27-3.59 66.34-2.42L66.34-2.42L66.34-2.42Q66.34-2.39 66.34-2.21L66.34-2.21L66.34-2.21Q66.34-2.03 66.32-1.78L66.32-1.78L66.32-1.78Q66.31-1.53 66.29-1.33L66.29-1.33L66.29-1.33Q66.27-1.13 66.27-1.03L66.27-1.03L66.27-1.03Q66.27-0.73 66.26-0.55L66.26-0.55L66.26-0.55Q66.24-0.37 66.12-0.23L66.12-0.23L66.12-0.23Q66.01-0.10 65.73-0.02L65.73-0.02L65.73-0.02Q65.44 0.07 64.98 0.13L64.98 0.13L64.98 0.13Q64.95-0.30 64.88-1.61L64.88-1.61L64.88-1.61Q64.81-2.92 64.73-4.71L64.73-4.71L64.73-4.71Q64.65-6.51 64.58-8.60L64.58-8.60L64.58-8.60Q64.51-10.69 64.46-12.68L64.46-12.68L64.46-12.68Q64.41-14.68 64.38-16.44L64.38-16.44L64.38-16.44Q64.35-18.20 64.41-19.32ZM76.53-0.46L73.35-9.56L73.35-9.56Q72.38-11.19 71.35-11.80L71.35-11.80L71.35-11.80Q70.32-12.42 69.38-12.38L69.38-12.38L69.38-12.38Q68.43-12.35 67.63-11.82L67.63-11.82L67.63-11.82Q66.84-11.29 66.34-10.69L66.34-10.69L66.34-12.09L75.27-24.24L76.53-24.24L69.53-14.01L69.53-14.01Q70.09-13.88 70.89-13.46L70.89-13.46L70.89-13.46Q71.69-13.05 72.45-12.52L72.45-12.52L72.45-12.52Q73.21-11.99 73.83-11.37L73.83-11.37L73.83-11.37Q74.44-10.76 74.64-10.19L74.64-10.19L77.83-0.46L77.83-0.46Q77.63-0.46 77.45-0.40L77.45-0.40L77.45-0.40Q77.26-0.33 77.08-0.28L77.08-0.28L77.08-0.28Q76.90-0.23 76.75-0.27L76.75-0.27L76.75-0.27Q76.60-0.30 76.53-0.46L76.53-0.46ZM79.72-12.88L79.72-12.88L79.72-12.88Q79.72-13.05 79.94-13.21L79.94-13.21L79.94-13.21Q80.15-13.38 80.47-13.48L80.47-13.48L80.47-13.48Q80.78-13.58 81.08-13.61L81.08-13.61L81.08-13.61Q81.38-13.65 81.51-13.51L81.51-13.51L81.51-13.51Q81.71-9.40 82.29-6.96L82.29-6.96L82.29-6.96Q82.88-4.52 83.62-3.39L83.62-3.39L83.62-3.39Q84.37-2.26 85.23-2.24L85.23-2.24L85.23-2.24Q86.10-2.22 86.93-2.97L86.93-2.97L86.93-2.97Q87.76-3.72 88.47-5.01L88.47-5.01L88.47-5.01Q89.18-6.31 89.63-7.80L89.63-7.80L89.63-7.80Q90.08-9.30 90.18-10.79L90.18-10.79L90.18-10.79Q90.28-12.29 89.91-13.45L89.91-13.45L91.91-13.68L91.91-13.68Q91.94-13.18 92.09-12.04L92.09-12.04L92.09-12.04Q92.24-10.89 92.42-9.45L92.42-9.45L92.42-9.45Q92.60-8.00 92.84-6.44L92.84-6.44L92.84-6.44Q93.07-4.88 93.23-3.54L93.23-3.54L93.23-3.54Q93.40-2.19 93.53-1.25L93.53-1.25L93.53-1.25Q93.67-0.30 93.67-0.07L93.67-0.07L92.24-0.07L90.68-5.81L90.68-5.81Q90.21-4.65 89.55-3.59L89.55-3.59L89.55-3.59Q88.88-2.52 88.10-1.73L88.10-1.73L88.10-1.73Q87.32-0.93 86.46-0.48L86.46-0.48L86.46-0.48Q85.60-0.03 84.75-0.12L84.75-0.12L84.75-0.12Q83.90-0.20 83.11-0.90L83.11-0.90L83.11-0.90Q82.31-1.59 81.63-3.10L81.63-3.10L81.63-3.10Q80.95-4.62 80.45-7.01L80.45-7.01L80.45-7.01Q79.95-9.40 79.72-12.88ZM94.93-12.95L94.93-12.95L94.93-12.95Q95.33-12.95 95.79-12.75L95.79-12.75L95.79-12.75Q96.26-12.55 96.46-11.95L96.46-11.95L96.46-11.95Q96.72-13.08 97.27-13.78L97.27-13.78L97.27-13.78Q97.82-14.48 98.53-14.74L98.53-14.74L98.53-14.74Q99.24-15.01 100.02-14.92L100.02-14.92L100.02-14.92Q100.80-14.84 101.49-14.44L101.49-14.44L101.49-14.44Q102.17-14.04 102.68-13.41L102.68-13.41L102.68-13.41Q103.20-12.78 103.39-11.95L103.39-11.95L103.39-11.95Q103.76-12.98 104.37-13.86L104.37-13.86L104.37-13.86Q104.99-14.74 105.74-15.34L105.74-15.34L105.74-15.34Q106.48-15.94 107.30-16.17L107.30-16.17L107.30-16.17Q108.11-16.40 108.82-16.15L108.82-16.15L108.82-16.15Q109.54-15.90 110.08-15.09L110.08-15.09L110.08-15.09Q110.63-14.28 110.87-12.75L110.87-12.75L110.87-12.75Q110.93-12.32 111.03-11.47L111.03-11.47L111.03-11.47Q111.13-10.63 111.25-9.56L111.25-9.56L111.25-9.56Q111.36-8.50 111.51-7.32L111.51-7.32L111.51-7.32Q111.66-6.14 111.78-5.08L111.78-5.08L111.78-5.08Q111.89-4.02 111.99-3.17L111.99-3.17L111.99-3.17Q112.09-2.32 112.16-1.93L112.16-1.93L112.16-1.93Q112.16-1.59 112.13-1.20L112.13-1.20L112.13-1.20Q112.09-0.80 111.98-0.51L111.98-0.51L111.98-0.51Q111.86-0.23 111.61-0.15L111.61-0.15L111.61-0.15Q111.36-0.07 110.87-0.43L110.87-0.43L110.87-0.43Q110.87-0.83 110.77-1.73L110.77-1.73L110.77-1.73Q110.67-2.62 110.57-3.80L110.57-3.80L110.57-3.80Q110.47-4.98 110.32-6.29L110.32-6.29L110.32-6.29Q110.17-7.60 110.02-8.77L110.02-8.77L110.02-8.77Q109.87-9.93 109.77-10.82L109.77-10.82L109.77-10.82Q109.67-11.72 109.57-12.09L109.57-12.09L109.57-12.09Q109.07-13.61 108.52-14.21L108.52-14.21L108.52-14.21Q107.98-14.81 107.43-14.74L107.43-14.74L107.43-14.74Q106.88-14.68 106.38-14.04L106.38-14.04L106.38-14.04Q105.88-13.41 105.49-12.45L105.49-12.45L105.49-12.45Q105.09-11.49 104.74-10.31L104.74-10.31L104.74-10.31Q104.39-9.13 104.21-7.97L104.21-7.97L104.21-7.97Q104.03-6.81 103.98-5.78L103.98-5.78L103.98-5.78Q103.93-4.75 104.09-4.08L104.09-4.08L102.80-3.82L102.80-3.82Q102.90-7.01 102.58-9.05L102.58-9.05L102.58-9.05Q102.27-11.09 101.72-12.19L101.72-12.19L101.72-12.19Q101.17-13.28 100.47-13.50L100.47-13.50L100.47-13.50Q99.78-13.71 99.09-13.21L99.09-13.21L99.09-13.21Q98.41-12.72 97.85-11.55L97.85-11.55L97.85-11.55Q97.29-10.39 97.00-8.75L97.00-8.75L97.00-8.75Q96.72-7.11 96.79-5.05L96.79-5.05L96.79-5.05Q96.85-2.99 97.48-0.63L97.48-0.63L96.22-0.63L96.22-0.63Q96.22-0.63 96.14-1.26L96.14-1.26L96.14-1.26Q96.06-1.89 95.94-2.87L95.94-2.87L95.94-2.87Q95.82-3.85 95.69-5.10L95.69-5.10L95.69-5.10Q95.56-6.34 95.43-7.62L95.43-7.62L95.43-7.62Q95.29-8.90 95.16-10.08L95.16-10.08L95.16-10.08Q95.03-11.26 94.93-12.09L94.93-12.09L94.93-12.09Q94.93-12.19 94.93-12.53L94.93-12.53L94.93-12.53Q94.93-12.88 94.93-12.95ZM113.59-2.86L113.59-2.86L113.59-2.86Q113.59-4.75 114.63-5.61L114.63-5.61L114.63-5.61Q115.68-6.47 117.37-6.47L117.37-6.47L117.37-6.47Q118.04-6.47 118.62-6.44L118.62-6.44L118.62-6.44Q119.20-6.41 119.73-6.28L119.73-6.28L119.73-6.28Q120.26-6.14 120.78-5.88L120.78-5.88L120.78-5.88Q121.29-5.61 121.86-5.11L121.86-5.11L121.86-5.11Q121.86-5.21 121.87-5.53L121.87-5.53L121.87-5.53Q121.89-5.84 121.89-6.21L121.89-6.21L121.89-6.21Q121.89-6.57 121.89-6.89L121.89-6.89L121.89-6.89Q121.89-7.21 121.89-7.34L121.89-7.34L121.89-7.34Q121.86-7.94 121.86-8.88L121.86-8.88L121.86-8.88Q121.86-9.83 121.71-10.82L121.71-10.82L121.71-10.82Q121.56-11.82 121.11-12.72L121.11-12.72L121.11-12.72Q120.66-13.61 119.66-14.08L119.66-14.08L119.66-14.08Q118.97-14.08 118.37-13.85L118.37-13.85L118.37-13.85Q117.77-13.61 117.17-13.35L117.17-13.35L117.17-13.35Q116.58-13.08 115.98-12.87L115.98-12.87L115.98-12.87Q115.38-12.65 114.68-12.65L114.68-12.65L114.68-12.65Q114.68-13.48 115.20-14.03L115.20-14.03L115.20-14.03Q115.71-14.58 116.44-14.88L116.44-14.88L116.44-14.88Q117.17-15.17 117.97-15.27L117.97-15.27L117.97-15.27Q118.77-15.37 119.37-15.37L119.37-15.37L119.37-15.37Q119.96-15.27 120.48-15.14L120.48-15.14L120.48-15.14Q120.99-15.01 121.44-14.61L121.44-14.61L121.44-14.61Q121.89-14.21 122.27-13.40L122.27-13.40L122.27-13.40Q122.65-12.58 122.93-11.12L122.93-11.12L122.93-11.12Q123.22-9.66 123.43-7.42L123.43-7.42L123.43-7.42Q123.65-5.18 123.78-1.93L123.78-1.93L123.78-1.93Q123.85-1.49 123.50-1.18L123.50-1.18L123.50-1.18Q123.15-0.86 122.55-0.65L122.55-0.65L122.55-0.65Q121.96-0.43 121.21-0.28L121.21-0.28L121.21-0.28Q120.46-0.13 119.70-0.07L119.70-0.07L119.70-0.07Q118.93 0 118.24 0.03L118.24 0.03L118.24 0.03Q117.54 0.07 117.07 0.07L117.07 0.07L117.07 0.07Q116.48 0.07 115.86-0.13L115.86-0.13L115.86-0.13Q115.25-0.33 114.73-0.71L114.73-0.71L114.73-0.71Q114.22-1.10 113.90-1.64L113.90-1.64L113.90-1.64Q113.59-2.19 113.59-2.86ZM117.90-5.18L117.90-5.18L117.90-5.18Q116.24-4.71 115.58-4.07L115.58-4.07L115.58-4.07Q114.92-3.42 115.00-2.82L115.00-2.82L115.00-2.82Q115.08-2.22 115.78-1.74L115.78-1.74L115.78-1.74Q116.48-1.26 117.47-1.11L117.47-1.11L117.47-1.11Q118.47-0.96 119.63-1.28L119.63-1.28L119.63-1.28Q120.79-1.59 121.86-2.52L121.86-2.52L121.86-2.52Q121.46-3.49 121.06-4.00L121.06-4.00L121.06-4.00Q120.66-4.52 120.20-4.78L120.20-4.78L120.20-4.78Q119.73-5.05 119.17-5.11L119.17-5.11L119.17-5.11Q118.60-5.18 117.90-5.18ZM124.88-12.95L124.88-12.95L124.88-12.95Q125.28-13.12 125.57-13.02L125.57-13.02L125.57-13.02Q125.87-12.92 126.07-12.65L126.07-12.65L126.07-12.65Q126.27-12.38 126.37-12.04L126.37-12.04L126.37-12.04Q126.47-11.69 126.54-11.36L126.54-11.36L126.54-11.36Q126.97-12.09 127.78-12.53L127.78-12.53L127.78-12.53Q128.60-12.98 129.53-13.13L129.53-13.13L129.53-13.13Q130.46-13.28 131.38-13.20L131.38-13.20L131.38-13.20Q132.31-13.12 132.96-12.80L132.96-12.80L132.96-12.80Q133.61-12.48 133.88-11.94L133.88-11.94L133.88-11.94Q134.14-11.39 133.74-10.66L133.74-10.66L133.74-10.66Q132.88-11.16 131.93-11.46L131.93-11.46L131.93-11.46Q130.99-11.75 130.09-11.65L130.09-11.65L130.09-11.65Q129.19-11.55 128.43-10.97L128.43-10.97L128.43-10.97Q127.67-10.39 127.17-9.13L127.17-9.13L127.17-9.13Q126.67-7.87 126.55-5.79L126.55-5.79L126.55-5.79Q126.44-3.72 126.84-0.63L126.84-0.63L125.57-0.63L125.57-0.63Q125.57-0.63 125.52-1.18L125.52-1.18L125.52-1.18Q125.47-1.73 125.42-2.62L125.42-2.62L125.42-2.62Q125.38-3.52 125.29-4.62L125.29-4.62L125.29-4.62Q125.21-5.71 125.14-6.84L125.14-6.84L125.14-6.84Q125.08-7.97 125.03-9.01L125.03-9.01L125.03-9.01Q124.98-10.06 124.91-10.82L124.91-10.82L124.91-10.82Q124.91-10.92 124.89-11.22L124.89-11.22L124.89-11.22Q124.88-11.52 124.88-11.87L124.88-11.87L124.88-11.87Q124.88-12.22 124.88-12.52L124.88-12.52L124.88-12.52Q124.88-12.82 124.88-12.95ZM137.33 0.07L136.83-12.88L136.83-12.88Q137.23-12.88 137.51-12.92L137.51-12.92L137.51-12.92Q137.79-12.95 137.99-12.58L137.99-12.58L137.99-12.58Q138.09-11.09 138.22-9.55L138.22-9.55L138.22-9.55Q138.36-8.00 138.49-6.44L138.49-6.44L138.49-6.44Q138.62-4.88 138.67-3.30L138.67-3.30L138.67-3.30Q138.72-1.73 138.69-0.23L138.69-0.23L138.69-0.23Q138.69-0.03 138.59 0.02L138.59 0.02L138.59 0.02Q138.49 0.07 138.31 0.05L138.31 0.05L138.31 0.05Q138.13 0.03 137.88 0.02L137.88 0.02L137.88 0.02Q137.63 0 137.33 0.07L137.33 0.07ZM134.90-18.83L134.90-18.83L134.90-18.83Q134.90-19.06 134.94-19.34L134.94-19.34L134.94-19.34Q134.97-19.62 135.09-19.86L135.09-19.86L135.09-19.86Q135.20-20.09 135.39-20.25L135.39-20.25L135.39-20.25Q135.57-20.42 135.83-20.42L135.83-20.42L135.83-20.42Q136.23-20.42 136.63-20.39L136.63-20.39L136.63-20.39Q137.03-20.35 137.39-20.24L137.39-20.24L137.39-20.24Q137.76-20.12 137.99-19.87L137.99-19.87L137.99-19.87Q138.22-19.62 138.22-19.16L138.22-19.16L138.22-19.16Q138.22-18.36 137.63-17.75L137.63-17.75L137.63-17.75Q137.03-17.13 136.17-17.13L136.17-17.13L136.17-17.13Q135.50-17.13 135.20-17.65L135.20-17.65L135.20-17.65Q134.90-18.16 134.90-18.83ZM136.83-18.66L136.83-18.66L136.83-18.66Q136.73-18.66 136.73-18.49L136.73-18.49L136.73-18.49Q136.73-18.33 136.83-18.33L136.83-18.33L136.83-18.33Q136.96-18.33 136.96-18.49L136.96-18.49L136.96-18.49Q136.96-18.66 136.83-18.66Z" fill="#eb6c6c"></path></g></g><style>text {
  font-size: 64px;
  font-family: Arial Black;
  dominant-baseline: central;
  text-anchor: middle;
}</style></svg>