<svg width="273.62714843749995px" height="77.6px" xmlns="http://www.w3.org/2000/svg" viewBox="113.18642578125002 36.2 273.62714843749995 77.6" style="background: rgba(0, 0, 0, 0);" preserveAspectRatio="xMidYMid"><defs><filter id="editing-extrude-glow"><feFlood flood-color="#363636" result="flood-1"></feFlood><feMorphology operator="erode" radius="1" in="SourceAlpha" result="erode"></feMorphology><feComposite operator="in" in="flood-1" in2="erode" result="comp1"></feComposite><feConvolveMatrix order="0,0" divisor="1" in="comp1" result="convolve" kernelMatrix=""></feConvolveMatrix><feOffset dx="0" dy="0" in="convolve" result="extrude"></feOffset><feComposite operator="in" in="flood-1" in2="extrude" result="comp-extrude"></feComposite><feFlood flood-color="#ffffff" result="flood-2"></feFlood><feComposite operator="in" in="flood-2" in2="SourceAlpha" result="comp2"></feComposite><feMorphology operator="dilate" radius="1" in="comp2" result="dilate"></feMorphology><feOffset dx="0" dy="0" in="dilate" result="offset"></feOffset><feGaussianBlur in="offset" stdDeviation="5.8" result="blur"></feGaussianBlur><feComponentTransfer in="blur" result="shadow"><feFuncA type="linear" slope="0.8" intercept="-0.2"></feFuncA></feComponentTransfer><feMerge><feMergeNode in="shadow"></feMergeNode><feMergeNode in="comp-extrude"></feMergeNode><feMergeNode in="SourceGraphic"></feMergeNode></feMerge></filter></defs><g filter="url(#editing-extrude-glow)"><g transform="translate(157.65492248535156, 91.13500022888184)"><path d="M28.29-23.70L28.29-23.70L28.29-23.70Q29.00-23.70 29.00-23.19L29.00-23.19L29.00-23.19Q29.00-21.11 23.29-11.32L23.29-11.32L23.29-11.32Q23.53-10.40 24.04-9.18L24.04-9.18L34.17-16.90L34.17-16.90Q39.98-21.32 42.02-22.58L42.02-22.58L42.02-22.58Q46.58-25.30 50.97-25.30L50.97-25.30L50.97-25.30Q52.22-25.30 53.28-24.89L53.28-24.89L53.28-24.89Q53.92-24.65 53.92-24.00L53.92-24.00L53.92-24.00Q53.92-23.36 53.58-23.36L53.58-23.36L53.58-23.36Q53.38-23.36 53.16-23.63L53.16-23.63L53.16-23.63Q52.94-23.90 51.87-23.90L51.87-23.90L51.87-23.90Q50.80-23.90 48.38-23.36L48.38-23.36L48.38-23.36Q44.57-22.51 39.75-19.55L39.75-19.55L39.75-19.55Q36.72-17.68 31.65-13.80L31.65-13.80L31.65-13.80Q26.59-9.93 24.34-8.47L24.34-8.47L24.34-8.47Q26.08-4.83 28.80-1.70L28.80-1.70L28.80-1.70Q32.98 3.16 36.31 3.16L36.31 3.16L36.31 3.16Q37.94 3.16 37.94 1.90L37.94 1.90L37.94 1.90Q37.94 1.67 37.89 1.43L37.89 1.43L37.89 1.43Q37.84 1.19 38.01 0.85L38.01 0.85L38.01 0.85Q38.18 0.51 38.42 0.51L38.42 0.51L38.42 0.51Q38.86 0.51 39.00 1.56L39.00 1.56L39.00 1.56Q39.03 1.73 39.03 1.90L39.03 1.90L39.03 1.90Q39.03 2.99 37.93 3.69L37.93 3.69L37.93 3.69Q36.82 4.39 35.31 4.39L35.31 4.39L35.31 4.39Q33.80 4.39 32.78 3.91L32.78 3.91L32.78 3.91Q30.09 2.58 27.35-0.75L27.35-0.75L27.35-0.75Q24.62-4.08 23.15-7.75L23.15-7.75L23.15-7.75Q21.28-6.66 20.06-6.56L20.06-6.56L20.06-6.56Q17.78-3.60 14.45-0.82L14.45-0.82L14.45-0.82Q12.65 0.71 10.54 1.65L10.54 1.65L10.54 1.65Q8.43 2.58 6.49 2.58L6.49 2.58L6.49 2.58Q3.74 2.58 2.24 1.21L2.24 1.21L2.24 1.21Q0.75-0.17 0.75-2.99L0.75-2.99L0.75-2.99Q0.75-4.39 1.29-5.58L1.29-5.58L1.29-5.58Q3.03-9.42 6.53-10.88L6.53-10.88L6.53-10.88Q8.47-11.73 10.39-11.73L10.39-11.73L10.39-11.73Q12.31-11.73 12.95-10.47L12.95-10.47L12.95-10.47Q13.19-10.03 13.19-9.54L13.19-9.54L13.19-9.54Q13.19-9.04 13.06-8.91L13.06-8.91L13.06-8.91Q12.92-8.77 12.68-9.15L12.68-9.15L12.68-9.15Q11.87-10.64 10.95-10.81L10.95-10.81L10.95-10.81Q10.34-10.88 10.06-10.88L10.06-10.88L10.06-10.88Q7.41-10.88 5.10-8.67L5.10-8.67L5.10-8.67Q2.11-5.78 2.11-2.41L2.11-2.41L2.11-2.41Q2.11 1.26 6.26 1.73L6.26 1.73L6.26 1.73Q6.39 1.73 6.53 1.73L6.53 1.73L6.53 1.73Q8.02 1.73 10.37 0.41L10.37 0.41L10.37 0.41Q14.18-1.77 18.50-7.07L18.50-7.07L18.50-7.07Q17.71-7.79 17.71-9.18L17.71-9.18L17.71-9.18Q17.71-10.57 18.75-11.82L18.75-11.82L18.75-11.82Q19.79-13.06 21.59-13.06L21.59-13.06L21.59-13.06Q22.10-13.06 22.54-12.95L22.54-12.95L22.54-12.95Q24.24-15.81 25.84-19.13L25.84-19.13L25.84-19.13Q27.44-22.44 27.44-22.95L27.44-22.95L27.44-22.95Q27.44-23.02 27.23-23.02L27.23-23.02L27.23-23.02Q27.03-23.02 24.87-21.95L24.87-21.95L24.87-21.95Q22.71-20.88 21.79-20.26L21.79-20.26L21.79-20.26Q20.88-19.65 19.55-18.34L19.55-18.34L19.55-18.34Q18.22-17.03 18.22-16.22L18.22-16.22L18.22-16.22Q18.22-15.84 18.75-15.47L18.75-15.47L18.75-15.47Q19.28-15.10 20.67-15.10L20.67-15.10L20.67-15.10Q20.84-15.03 20.84-14.91L20.84-14.91L20.84-14.91Q20.84-14.79 19.91-14.64L19.91-14.64L19.91-14.64Q18.97-14.48 18.43-14.48L18.43-14.48L18.43-14.48Q17.20-14.48 17.20-15.50L17.20-15.50L17.20-15.50Q17.20-16.69 18.67-18.36L18.67-18.36L18.67-18.36Q20.13-20.03 21.86-20.98L21.86-20.98L21.86-20.98Q26.93-23.70 28.29-23.70ZM22.88-8.47L22.88-8.47L22.88-8.47Q22.61-9.15 22.44-9.83L22.44-9.83L22.44-9.83Q21.76-8.84 21.08-7.89L21.08-7.89L21.08-7.89Q21.42-7.89 21.69-7.94L21.69-7.94L21.69-7.94Q21.96-7.99 22.88-8.47ZM21.59-11.39L21.59-11.39L21.59-11.39Q21.18-11.56 20.69-11.56L20.69-11.56L20.69-11.56Q20.20-11.56 19.70-10.95L19.70-10.95L19.70-10.95Q19.21-10.34 19.21-9.64L19.21-9.64L19.21-9.64Q19.21-8.94 19.58-8.47L19.58-8.47L19.58-8.47Q21.25-10.85 21.59-11.39ZM43.11-10.17L43.11-10.17L43.59-10.27L43.59-10.27Q43.96-10.27 44.30-9.96L44.30-9.96L44.30-9.96Q44.64-9.66 44.64-9.49L44.64-9.49L44.64-9.49Q44.64-9.32 42.53-6.21L42.53-6.21L42.53-6.21Q40.43-3.09 40.43-1.87L40.43-1.87L40.43-1.87Q40.43-1.77 40.46-1.67L40.46-1.67L40.46-1.67Q40.63-0.88 41.21-0.88L41.21-0.88L41.21-0.88Q42.98-0.88 47.67-6.73L47.67-6.73L47.67-6.73Q47.77-6.87 47.91-6.87L47.91-6.87L47.91-6.87Q48.04-6.87 48.04-6.61L48.04-6.61L48.04-6.61Q48.04-6.36 47.74-5.95L47.74-5.95L47.74-5.95Q43.38-0.14 41.11-0.14L41.11-0.14L41.11-0.14Q40.80-0.14 40.53-0.24L40.53-0.24L40.53-0.24Q39.03-0.82 39.03-2.48L39.03-2.48L39.03-2.48Q39.03-3.06 39.17-3.64L39.17-3.64L37.06-1.60L37.06-1.60Q35.05 0.17 34.15 0.17L34.15 0.17L34.15 0.17Q33.25 0.17 32.44-0.41L32.44-0.41L32.44-0.41Q31.52-1.09 31.52-2.21L31.52-2.21L31.52-2.21Q31.52-4.69 34.99-8.14L34.99-8.14L34.99-8.14Q38.45-11.59 41.34-11.59L41.34-11.59L41.34-11.59Q42.47-11.59 42.84-10.81L42.84-10.81L42.84-10.81Q42.94-10.54 43.01-10.35L43.01-10.35L43.01-10.35Q43.08-10.17 43.11-10.17ZM32.95-1.80L32.95-1.80L32.95-1.80Q32.95-0.58 33.80-0.58L33.80-0.58L33.80-0.58Q35.77-0.58 39.17-4.90L39.17-4.90L42.77-9.86L42.77-9.86Q42.50-10.34 41.89-10.34L41.89-10.34L41.89-10.34Q39.81-10.34 36.38-7.12L36.38-7.12L36.38-7.12Q32.95-3.91 32.95-1.80ZM52.77-13.94L52.77-13.94Q53.28-13.94 53.74-13.60L53.74-13.60L53.74-13.60Q54.20-13.26 54.20-12.84L54.20-12.84L54.20-12.84Q54.20-12.41 53.77-12.09L53.77-12.09L53.77-12.09Q53.35-11.76 52.84-11.76L52.84-11.76L52.84-11.76Q52.33-11.76 51.90-12.12L51.90-12.12L51.90-12.12Q51.48-12.48 51.48-12.95L51.48-12.95L51.48-12.95Q51.48-13.94 52.77-13.94L52.77-13.94ZM52.12-9.25L52.12-9.25L52.12-9.25Q52.12-9.04 49.44-4.42L49.44-4.42L49.44-4.42Q46.82 0.58 45.39 2.55L45.39 2.55L45.39 2.55Q42.30 6.97 39.58 6.97L39.58 6.97L39.58 6.97Q38.56 6.97 37.69 6.31L37.69 6.31L37.69 6.31Q36.82 5.64 36.82 4.98L36.82 4.98L36.82 4.98Q36.82 4.32 37.13 4.32L37.13 4.32L37.13 4.32Q37.16 4.32 37.83 5.19L37.83 5.19L37.83 5.19Q38.49 6.05 39.37 6.05L39.37 6.05L39.37 6.05Q42.09 6.05 45.56-0.10L45.56-0.10L45.56-0.10Q47.70-3.94 48.48-6.32L48.48-6.32L48.48-6.32Q48.08-5.85 47.07-4.93L47.07-4.93L47.07-4.93Q46.07-4.01 45.85-4.01L45.85-4.01L45.85-4.01Q45.63-4.01 45.63-4.11L45.63-4.11L45.63-4.11Q45.63-4.42 46.17-4.90L46.17-4.90L46.17-4.90Q46.72-5.37 47.63-6.70L47.63-6.70L47.63-6.70Q48.55-8.02 48.72-8.16L48.72-8.16L49.84-9.35L49.84-9.35Q50.52-10.00 51.32-10.00L51.32-10.00L51.32-10.00Q52.12-10.00 52.12-9.25ZM63.95-10.17L63.95-10.17L64.43-10.27L64.43-10.27Q64.80-10.27 65.14-9.96L65.14-9.96L65.14-9.96Q65.48-9.66 65.48-9.49L65.48-9.49L65.48-9.49Q65.48-9.32 63.38-6.21L63.38-6.21L63.38-6.21Q61.27-3.09 61.27-1.87L61.27-1.87L61.27-1.87Q61.27-1.77 61.30-1.67L61.30-1.67L61.30-1.67Q61.47-0.88 62.05-0.88L62.05-0.88L62.05-0.88Q63.82-0.88 68.51-6.73L68.51-6.73L68.51-6.73Q68.61-6.87 68.75-6.87L68.75-6.87L68.75-6.87Q68.88-6.87 68.88-6.61L68.88-6.61L68.88-6.61Q68.88-6.36 68.58-5.95L68.58-5.95L68.58-5.95Q64.23-0.14 61.95-0.14L61.95-0.14L61.95-0.14Q61.64-0.14 61.37-0.24L61.37-0.24L61.37-0.24Q59.87-0.82 59.87-2.48L59.87-2.48L59.87-2.48Q59.87-3.06 60.01-3.64L60.01-3.64L57.90-1.60L57.90-1.60Q55.90 0.17 55.00 0.17L55.00 0.17L55.00 0.17Q54.09 0.17 53.28-0.41L53.28-0.41L53.28-0.41Q52.36-1.09 52.36-2.21L52.36-2.21L52.36-2.21Q52.36-4.69 55.83-8.14L55.83-8.14L55.83-8.14Q59.30-11.59 62.19-11.59L62.19-11.59L62.19-11.59Q63.31-11.59 63.68-10.81L63.68-10.81L63.68-10.81Q63.78-10.54 63.85-10.35L63.85-10.35L63.85-10.35Q63.92-10.17 63.95-10.17ZM53.79-1.80L53.79-1.80L53.79-1.80Q53.79-0.58 54.64-0.58L54.64-0.58L54.64-0.58Q56.61-0.58 60.01-4.90L60.01-4.90L63.61-9.86L63.61-9.86Q63.34-10.34 62.73-10.34L62.73-10.34L62.73-10.34Q60.66-10.34 57.22-7.12L57.22-7.12L57.22-7.12Q53.79-3.91 53.79-1.80ZM68-1.70L68-1.70L68-1.70Q68-0.68 69.12-0.68L69.12-0.68L69.12-0.68Q70.24-0.68 72.01-1.87L72.01-1.87L72.01-1.87Q73.78-3.06 75.45-5.10L75.45-5.10L75.45-5.10Q75.85-5.64 76.09-5.64L76.09-5.64L76.09-5.64Q76.33-5.64 76.33-5.44L76.33-5.44L76.33-5.44Q76.33-5.24 74.94-3.67L74.94-3.67L74.94-3.67Q71.54 0.07 69.26 0.07L69.26 0.07L69.26 0.07Q68.14 0.07 67.35-0.46L67.35-0.46L67.35-0.46Q66.57-0.99 66.57-2.09L66.57-2.09L66.57-2.09Q66.57-3.20 67.15-4.66L67.15-4.66L67.15-4.66Q68.14-6.97 70.31-10.47L70.31-10.47L70.31-10.47Q74.29-16.93 75.96-16.93L75.96-16.93L75.96-16.93Q76.30-16.93 76.65-16.68L76.65-16.68L76.65-16.68Q77.01-16.42 77.04-16.12L77.04-16.12L77.04-16.12Q76.26-15.06 74.04-12.07L74.04-12.07L74.04-12.07Q71.81-9.08 70.96-7.77L70.96-7.77L70.96-7.77Q70.11-6.46 69.68-5.81L69.68-5.81L69.68-5.81Q69.26-5.17 69.05-4.81L69.05-4.81L69.05-4.81Q68.85-4.45 68.58-3.88L68.58-3.88L68.58-3.88Q68-2.72 68-1.70ZM109.96-23.70L109.96-23.70L109.96-23.70Q110.67-23.70 110.67-23.19L110.67-23.19L110.67-23.19Q110.67-21.11 104.96-11.32L104.96-11.32L104.96-11.32Q105.20-10.40 105.71-9.18L105.71-9.18L115.84-16.90L115.84-16.90Q121.65-21.32 123.69-22.58L123.69-22.58L123.69-22.58Q128.25-25.30 132.63-25.30L132.63-25.30L132.63-25.30Q133.89-25.30 134.95-24.89L134.95-24.89L134.95-24.89Q135.59-24.65 135.59-24.00L135.59-24.00L135.59-24.00Q135.59-23.36 135.25-23.36L135.25-23.36L135.25-23.36Q135.05-23.36 134.83-23.63L134.83-23.63L134.83-23.63Q134.61-23.90 133.54-23.90L133.54-23.90L133.54-23.90Q132.46-23.90 130.05-23.36L130.05-23.36L130.05-23.36Q126.24-22.51 121.41-19.55L121.41-19.55L121.41-19.55Q118.39-17.68 113.32-13.80L113.32-13.80L113.32-13.80Q108.26-9.93 106.01-8.47L106.01-8.47L106.01-8.47Q107.75-4.83 110.47-1.70L110.47-1.70L110.47-1.70Q114.65 3.16 117.98 3.16L117.98 3.16L117.98 3.16Q119.61 3.16 119.61 1.90L119.61 1.90L119.61 1.90Q119.61 1.67 119.56 1.43L119.56 1.43L119.56 1.43Q119.51 1.19 119.68 0.85L119.68 0.85L119.68 0.85Q119.85 0.51 120.09 0.51L120.09 0.51L120.09 0.51Q120.53 0.51 120.67 1.56L120.67 1.56L120.67 1.56Q120.70 1.73 120.70 1.90L120.70 1.90L120.70 1.90Q120.70 2.99 119.59 3.69L119.59 3.69L119.59 3.69Q118.49 4.39 116.98 4.39L116.98 4.39L116.98 4.39Q115.46 4.39 114.44 3.91L114.44 3.91L114.44 3.91Q111.76 2.58 109.02-0.75L109.02-0.75L109.02-0.75Q106.28-4.08 104.82-7.75L104.82-7.75L104.82-7.75Q102.95-6.66 101.73-6.56L101.73-6.56L101.73-6.56Q99.45-3.60 96.12-0.82L96.12-0.82L96.12-0.82Q94.32 0.71 92.21 1.65L92.21 1.65L92.21 1.65Q90.10 2.58 88.16 2.58L88.16 2.58L88.16 2.58Q85.41 2.58 83.91 1.21L83.91 1.21L83.91 1.21Q82.42-0.17 82.42-2.99L82.42-2.99L82.42-2.99Q82.42-4.39 82.96-5.58L82.96-5.58L82.96-5.58Q84.69-9.42 88.20-10.88L88.20-10.88L88.20-10.88Q90.13-11.73 92.06-11.73L92.06-11.73L92.06-11.73Q93.98-11.73 94.62-10.47L94.62-10.47L94.62-10.47Q94.86-10.03 94.86-9.54L94.86-9.54L94.86-9.54Q94.86-9.04 94.72-8.91L94.72-8.91L94.72-8.91Q94.59-8.77 94.35-9.15L94.35-9.15L94.35-9.15Q93.53-10.64 92.62-10.81L92.62-10.81L92.62-10.81Q92.00-10.88 91.73-10.88L91.73-10.88L91.73-10.88Q89.08-10.88 86.77-8.67L86.77-8.67L86.77-8.67Q83.78-5.78 83.78-2.41L83.78-2.41L83.78-2.41Q83.78 1.26 87.92 1.73L87.92 1.73L87.92 1.73Q88.06 1.73 88.20 1.73L88.20 1.73L88.20 1.73Q89.69 1.73 92.04 0.41L92.04 0.41L92.04 0.41Q95.85-1.77 100.16-7.07L100.16-7.07L100.16-7.07Q99.38-7.79 99.38-9.18L99.38-9.18L99.38-9.18Q99.38-10.57 100.42-11.82L100.42-11.82L100.42-11.82Q101.46-13.06 103.26-13.06L103.26-13.06L103.26-13.06Q103.77-13.06 104.21-12.95L104.21-12.95L104.21-12.95Q105.91-15.81 107.51-19.13L107.51-19.13L107.51-19.13Q109.11-22.44 109.11-22.95L109.11-22.95L109.11-22.95Q109.11-23.02 108.90-23.02L108.90-23.02L108.90-23.02Q108.70-23.02 106.54-21.95L106.54-21.95L106.54-21.95Q104.38-20.88 103.46-20.26L103.46-20.26L103.46-20.26Q102.54-19.65 101.22-18.34L101.22-18.34L101.22-18.34Q99.89-17.03 99.89-16.22L99.89-16.22L99.89-16.22Q99.89-15.84 100.42-15.47L100.42-15.47L100.42-15.47Q100.95-15.10 102.34-15.10L102.34-15.10L102.34-15.10Q102.51-15.03 102.51-14.91L102.51-14.91L102.51-14.91Q102.51-14.79 101.58-14.64L101.58-14.64L101.58-14.64Q100.64-14.48 100.10-14.48L100.10-14.48L100.10-14.48Q98.87-14.48 98.87-15.50L98.87-15.50L98.87-15.50Q98.87-16.69 100.33-18.36L100.33-18.36L100.33-18.36Q101.80-20.03 103.53-20.98L103.53-20.98L103.53-20.98Q108.60-23.70 109.96-23.70ZM104.55-8.47L104.55-8.47L104.55-8.47Q104.28-9.15 104.11-9.83L104.11-9.83L104.11-9.83Q103.43-8.84 102.75-7.89L102.75-7.89L102.75-7.89Q103.09-7.89 103.36-7.94L103.36-7.94L103.36-7.94Q103.63-7.99 104.55-8.47ZM103.26-11.39L103.26-11.39L103.26-11.39Q102.85-11.56 102.36-11.56L102.36-11.56L102.36-11.56Q101.86-11.56 101.37-10.95L101.37-10.95L101.37-10.95Q100.88-10.34 100.88-9.64L100.88-9.64L100.88-9.64Q100.88-8.94 101.25-8.47L101.25-8.47L101.25-8.47Q102.92-10.85 103.26-11.39ZM123.01 0.20L123.01 0.20L123.01 0.20Q122.84 0.24 122.28 0.24L122.28 0.24L122.28 0.24Q121.72 0.24 121.16-0.20L121.16-0.20L121.16-0.20Q120.60-0.65 120.60-1.34L120.60-1.34L120.60-1.34Q120.60-2.04 120.85-2.89L120.85-2.89L120.85-2.89Q121.11-3.74 121.21-4.18L121.21-4.18L121.21-4.18Q117.30 0.37 115.09 0.37L115.09 0.37L115.09 0.37Q113.70 0.37 113.56-1.36L113.56-1.36L113.56-1.36Q113.56-1.50 113.56-1.60L113.56-1.60L113.56-1.60Q113.56-3.06 115.33-5.54L115.33-5.54L115.33-5.54Q114.34-4.66 113.32-3.50L113.32-3.50L113.32-3.50Q113.19-3.37 112.98-3.37L112.98-3.37L112.98-3.37Q112.85-3.37 112.85-3.54L112.85-3.54L112.85-3.54Q112.85-3.71 113.15-4.11L113.15-4.11L117.84-9.62L117.84-9.62Q118.73-10.64 119.65-10.64L119.65-10.64L119.65-10.64Q120.56-10.64 120.56-10.03L120.56-10.03L120.56-10.03Q120.56-9.79 120.36-9.59L120.36-9.59L120.36-9.59Q119-8.33 116.94-5.41L116.94-5.41L116.94-5.41Q114.89-2.48 114.89-1.09L114.89-1.09L114.89-1.09Q114.89-0.48 115.29-0.48L115.29-0.48L115.29-0.48Q116.72-0.48 119.44-3.30L119.44-3.30L119.44-3.30Q120.39-4.25 122.98-7.50L122.98-7.50L122.98-7.50Q125.56-10.74 126.38-10.74L126.38-10.74L126.38-10.74Q127.60-10.74 127.60-9.79L127.60-9.79L127.60-9.79Q127.60-9.45 126.17-7.82L126.17-7.82L126.17-7.82Q124.24-5.47 123.22-4.00L123.22-4.00L123.22-4.00Q122.20-2.52 122.20-1.60L122.20-1.60L122.20-1.60Q122.20-0.68 122.71-0.68L122.71-0.68L122.71-0.68Q122.94-0.68 123.25-0.82L123.25-0.82L123.25-0.82Q125.60-1.84 128.86-5.58L128.86-5.58L128.86-5.58Q129.06-5.81 129.27-5.81L129.27-5.81L129.27-5.81Q129.47-5.81 129.47-5.59L129.47-5.59L129.47-5.59Q129.47-5.37 129.23-5.10L129.23-5.10L129.23-5.10Q127.77-3.40 125.80-1.68L125.80-1.68L125.80-1.68Q123.83 0.03 123.01 0.20ZM144.19-0.41L144.19-0.41L144.19-0.41Q141.88-0.41 141.88-2.55L141.88-2.55L141.88-2.55Q141.88-3.77 142.97-5.90L142.97-5.90L142.97-5.90Q144.06-8.02 145.25-9.49L145.25-9.49L145.25-9.49Q143.14-8.47 140.39-5.80L140.39-5.80L140.39-5.80Q137.63-3.13 136.54-0.20L136.54-0.20L136.54-0.20Q136.37 0.07 135.97 0.07L135.97 0.07L135.97 0.07Q135.15 0.07 135.15-0.85L135.15-0.85L135.15-0.85Q135.49-2.72 136.68-5.13L136.68-5.13L136.68-5.13Q137.05-5.92 138.89-9.69L138.89-9.69L138.89-9.69Q136.24-7.96 134.39-5.97L134.39-5.97L134.39-5.97Q132.53-3.98 130.95-1.97L130.95-1.97L130.95-1.97Q129.37 0.03 129.17 0.03L129.17 0.03L129.17 0.03Q128.72 0.03 128.40-0.37L128.40-0.37L128.40-0.37Q128.08-0.78 128.08-1.19L128.08-1.19L128.08-1.19Q128.08-1.80 129.85-5.68L129.85-5.68L127.81-3.54L127.81-3.54Q127.06-2.79 126.87-2.79L126.87-2.79L126.87-2.79Q126.68-2.79 126.68-3.01L126.68-3.01L126.68-3.01Q126.68-3.23 126.96-3.50L126.96-3.50L126.96-3.50Q128.21-4.76 129.20-6.02L129.20-6.02L129.20-6.02Q130.19-7.28 132.46-10.51L132.46-10.51L132.46-10.51Q132.84-11.02 133.52-11.02L133.52-11.02L133.52-11.02Q134.20-11.02 134.20-10.37L134.20-10.37L134.20-10.37Q134.20-10.13 132.40-7.06L132.40-7.06L132.40-7.06Q130.59-3.98 130.39-3.20L130.39-3.20L130.39-3.20Q131.78-4.73 134.57-7.31L134.57-7.31L134.57-7.31Q138.75-11.19 140.08-11.19L140.08-11.19L140.08-11.19Q140.49-11.19 140.83-10.95L140.83-10.95L140.83-10.95Q141.17-10.71 141.17-10.42L141.17-10.42L141.17-10.42Q141.17-10.13 139.84-7.85L139.84-7.85L139.84-7.85Q138.55-5.51 138.41-5.07L138.41-5.07L138.41-5.07Q142.19-8.23 142.19-8.26L142.19-8.26L142.19-8.26Q145.38-10.74 146.78-10.74L146.78-10.74L146.78-10.74Q147.19-10.74 147.54-10.49L147.54-10.49L147.54-10.49Q147.90-10.23 147.90-9.89L147.90-9.89L147.90-9.89Q147.90-9.83 145.69-7.02L145.69-7.02L145.69-7.02Q143.48-4.22 143.21-2.41L143.21-2.41L143.21-2.41Q143.14-1.80 143.45-1.50L143.45-1.50L143.45-1.50Q143.75-1.19 144.55-1.19L144.55-1.19L144.55-1.19Q145.35-1.19 146.90-2.30L146.90-2.30L146.90-2.30Q148.44-3.40 150.04-5.27L150.04-5.27L150.04-5.27Q150.65-5.95 150.88-5.95L150.88-5.95L150.88-5.95Q151.10-5.95 151.10-5.78L151.10-5.78L151.10-5.78Q151.10-5.54 150.79-5.24L150.79-5.24L150.79-5.24Q149.12-3.23 147.20-1.82L147.20-1.82L147.20-1.82Q145.28-0.41 144.19-0.41ZM160.68-10.17L160.68-10.17L161.16-10.27L161.16-10.27Q161.53-10.27 161.87-9.96L161.87-9.96L161.87-9.96Q162.21-9.66 162.21-9.49L162.21-9.49L162.21-9.49Q162.21-9.32 160.11-6.21L160.11-6.21L160.11-6.21Q158.00-3.09 158.00-1.87L158.00-1.87L158.00-1.87Q158.00-1.77 158.03-1.67L158.03-1.67L158.03-1.67Q158.20-0.88 158.78-0.88L158.78-0.88L158.78-0.88Q160.55-0.88 165.24-6.73L165.24-6.73L165.24-6.73Q165.34-6.87 165.48-6.87L165.48-6.87L165.48-6.87Q165.61-6.87 165.61-6.61L165.61-6.61L165.61-6.61Q165.61-6.36 165.31-5.95L165.31-5.95L165.31-5.95Q160.96-0.14 158.68-0.14L158.68-0.14L158.68-0.14Q158.37-0.14 158.10-0.24L158.10-0.24L158.10-0.24Q156.60-0.82 156.60-2.48L156.60-2.48L156.60-2.48Q156.60-3.06 156.74-3.64L156.74-3.64L154.63-1.60L154.63-1.60Q152.63 0.17 151.73 0.17L151.73 0.17L151.73 0.17Q150.82 0.17 150.01-0.41L150.01-0.41L150.01-0.41Q149.09-1.09 149.09-2.21L149.09-2.21L149.09-2.21Q149.09-4.69 152.56-8.14L152.56-8.14L152.56-8.14Q156.03-11.59 158.92-11.59L158.92-11.59L158.92-11.59Q160.04-11.59 160.41-10.81L160.41-10.81L160.41-10.81Q160.51-10.54 160.58-10.35L160.58-10.35L160.58-10.35Q160.65-10.17 160.68-10.17ZM150.52-1.80L150.52-1.80L150.52-1.80Q150.52-0.58 151.37-0.58L151.37-0.58L151.37-0.58Q153.34-0.58 156.74-4.90L156.74-4.90L160.34-9.86L160.34-9.86Q160.07-10.34 159.46-10.34L159.46-10.34L159.46-10.34Q157.39-10.34 153.95-7.12L153.95-7.12L153.95-7.12Q150.52-3.91 150.52-1.80ZM170.34 0.17L170.34 0.17L170.34 0.17Q167.79 0.17 167.79-2.65L167.79-2.65L167.79-2.65Q167.79-4.08 168.54-5.78L168.54-5.78L168.54-5.78Q169.29-7.48 170.17-8.64L170.17-8.64L170.17-8.64Q170.00-8.60 169.73-8.60L169.73-8.60L169.73-8.60Q168.91-8.60 168.37-9.76L168.37-9.76L165.85-6.49L165.85-6.49Q163.74-3.88 163.40-3.88L163.40-3.88L163.40-3.88Q163.23-3.88 163.23-4.01L163.23-4.01L163.23-4.01Q163.23-4.35 163.81-5.00L163.81-5.00L163.81-5.00Q166.77-8.43 167.99-10.81L167.99-10.81L167.99-10.81Q168.78-13.77 169.97-13.77L169.97-13.77L169.97-13.77Q170.75-13.77 170.75-13.09L170.75-13.09L170.75-13.09Q170.75-12.41 169.90-11.36L169.90-11.36L169.08-10.27L169.08-10.27Q169.08-9.55 170.14-9.55L170.14-9.55L170.14-9.55Q170.75-9.55 171.50-10.00L171.50-10.00L172.38-10.54L172.38-10.54Q172.45-10.57 172.72-10.57L172.72-10.57L172.72-10.57Q172.99-10.57 173.30-10.23L173.30-10.23L173.30-10.23Q173.60-9.89 173.50-9.62L173.50-9.62L171.16-6.66L171.16-6.66Q168.98-3.88 168.98-2.26L168.98-2.26L168.98-2.26Q168.98-0.65 170.48-0.65L170.48-0.65L170.48-0.65Q172.04-0.65 174.32-2.31L174.32-2.31L174.32-2.31Q175.68-3.30 176.80-4.52L176.80-4.52L176.80-4.52Q177.85-5.75 177.96-5.75L177.96-5.75L177.96-5.75Q178.19-5.75 178.19-5.49L178.19-5.49L178.19-5.49Q178.19-5.24 177.89-4.90L177.89-4.90L176.80-3.67L176.80-3.67Q175.88-2.72 174.76-1.84L174.76-1.84L174.76-1.84Q172.07 0.17 170.34 0.17ZM184.18-13.87L184.18-13.87Q184.69-13.87 185.15-13.55L185.15-13.55L185.15-13.55Q185.61-13.23 185.61-12.78L185.61-12.78L185.61-12.78Q185.61-12.34 185.18-12.02L185.18-12.02L185.18-12.02Q184.76-11.70 184.25-11.70L184.25-11.70L184.25-11.70Q183.74-11.70 183.31-12.07L183.31-12.07L183.31-12.07Q182.89-12.44 182.89-12.92L182.89-12.92L182.89-12.92Q182.89-13.87 184.18-13.87L184.18-13.87ZM178.02 0.37L178.02 0.37L178.02 0.37Q176.29 0.37 176.29-1.87L176.29-1.87L176.29-1.87Q176.29-3.71 178.30-6.95L178.30-6.95L178.30-6.95Q180.30-10.20 181.53-10.23L181.53-10.23L181.53-10.23Q181.87-10.23 182.29-9.96L182.29-9.96L182.29-9.96Q182.72-9.69 182.72-9.42L182.72-9.42L182.72-9.42Q182.55-9.18 182.31-8.89L182.31-8.89L182.31-8.89Q182.07-8.60 181.80-8.26L181.80-8.26L181.80-8.26Q181.53-7.92 181.05-7.29L181.05-7.29L181.05-7.29Q180.57-6.66 180.13-6.09L180.13-6.09L180.13-6.09Q177.58-2.79 177.58-1.55L177.58-1.55L177.58-1.55Q177.58-0.31 178.43-0.31L178.43-0.31L178.43-0.31Q179.15-0.31 180.37-1.09L180.37-1.09L180.37-1.09Q183.23-2.86 184.89-4.96L184.89-4.96L184.89-4.96Q185.50-5.75 185.73-5.75L185.73-5.75L185.73-5.75Q185.95-5.75 185.95-5.47L185.95-5.47L185.95-5.47Q185.95-5.20 185.16-4.39L185.16-4.39L185.16-4.39Q184.38-3.57 183.92-3.09L183.92-3.09L183.92-3.09Q183.46-2.62 183.29-2.47L183.29-2.47L183.29-2.47Q183.12-2.31 182.67-1.89L182.67-1.89L182.67-1.89Q182.21-1.46 181.97-1.29L181.97-1.29L181.97-1.29Q181.73-1.12 181.29-0.78L181.29-0.78L181.29-0.78Q180.85-0.44 180.51-0.29L180.51-0.29L180.51-0.29Q180.17-0.14 179.72 0.07L179.72 0.07L179.72 0.07Q179.01 0.37 178.02 0.37Z" fill="#eb6c6c"></path></g></g><style>text {
  font-size: 64px;
  font-family: Arial Black;
  dominant-baseline: central;
  text-anchor: middle;
}</style></svg>